<svg xmlns="http://www.w3.org/2000/svg" viewBox="0 0 26.09 26.09"><defs><style>.wn1{fill:#c7d02e;}</style></defs><g id="Capa_2" data-name="Capa 2"><g id="Capa_1-2" data-name="Capa 1"><path class="wn1" d="M13,0a13.06,13.06,0,1,0,9.22,3.82A13,13,0,0,0,13,0Zm0,24.93a11.88,11.88,0,1,1,8.41-3.48A11.88,11.88,0,0,1,13,24.93Z"/><path class="wn1" d="M13,4.89a.57.57,0,0,0-.57.58V12.8L7.28,18a.57.57,0,0,0-.17.41.54.54,0,0,0,.17.4.58.58,0,0,0,.82,0l5.35-5.35h0a.47.47,0,0,0,.12-.19.54.54,0,0,0,0-.22V5.47a.58.58,0,0,0-.17-.41A.57.57,0,0,0,13,4.89Z"/></g></g></svg>