<svg version="1.1" id="logo" xmlns="http://www.w3.org/2000/svg" xmlns:xlink="http://www.w3.org/1999/xlink" x="0px" y="0px"
	 viewBox="0 0 148.4 35.1" style="enable-background:new 0 0 148.4 35.1;" xml:space="preserve">
<style type="text/css">
	.bd0{fill:#004D56;}
	.bd1{fill:#004E57;}
	.bd2{fill:#C7D02E;}
</style>
<g id="c_logo">
	<g id="c_logo2">
		<path class="bd0" d="M35.5,10.9h-1.6V8.3h6.8v2.6h-1.6v6.2c0,0.5,0.1,1.1,0.4,1.6c0.5,0.7,1.3,1.1,2.1,1c0.8,0.1,1.6-0.3,2.1-1
			c0.3-0.5,0.4-1,0.4-1.6v-6.2h-1.6V8.3h6.8v2.6h-1.6v6.2c0,1.3-0.4,2.6-1.2,3.7c-1.3,1.4-3,2.1-4.9,2c-1.8,0.1-3.6-0.6-4.9-1.9
			c-0.9-1.1-1.3-2.4-1.2-3.8V10.9z"/>
		<path class="bd0" d="M50.7,20h1.6l0.7-9.1h-1.6V8.3H57l2.4,7.1c0.1,0.3,0.2,0.7,0.3,1.1c0,0.1,0.1,0.3,0.1,0.4l0,0
			c0-0.1,0-0.3,0.1-0.4c0.1-0.3,0.2-0.6,0.3-1.1l2.4-7.1h5.6v2.6h-1.6l0.8,9.1H69v2.6h-6.4V20H64l-0.3-5.1c0-0.3,0-0.7,0-1l0.1-0.6
			h-0.1c0,0.2-0.1,0.4-0.1,0.5c-0.1,0.3-0.1,0.7-0.3,1L61.4,20h-3l-1.9-5.2c-0.1-0.3-0.2-0.7-0.3-1c0-0.2-0.1-0.4-0.1-0.5H56
			l0.1,0.6c0,0.3,0,0.7,0,1L55.8,20h1.4v2.6h-6.5V20z"/>
		<path class="bd0" d="M76.3,20h1.6v-8.9h-1.6V8.3h6.8v2.8h-1.6v8.7h3.1v-2.1h3v4.9H76.3V20z"/>
		<path class="bd0" d="M88.6,20h1.2l3.9-11.7h4.1l3.9,11.7h1.2v2.6h-6V20h1.3l-0.5-1.9H94L93.3,20h1.2v2.6h-6L88.6,20z M96.8,15.4
			L96,12.7c-0.1-0.4-0.2-0.7-0.2-1.1l-0.1-0.4h-0.1c0,0.1,0,0.3,0,0.4c-0.1,0.4-0.1,0.7-0.2,1.1l-0.8,2.6L96.8,15.4z"/>
		<path class="bd0" d="M105,10.9h-1.6V8.3h6.8v2.6h-1.6v6.2c0,0.5,0.1,1.1,0.4,1.6c0.5,0.7,1.3,1.1,2.1,1c0.8,0.1,1.6-0.3,2.1-1
			c0.3-0.5,0.4-1,0.4-1.6v-6.2H112V8.3h6.8v2.6h-1.6v6.2c0,1.3-0.4,2.6-1.2,3.7c-1.3,1.4-3,2.1-4.9,2c-1.8,0.1-3.6-0.6-4.9-1.9
			c-0.9-1.1-1.3-2.4-1.2-3.8L105,10.9z"/>
		<path class="bd0" d="M120.5,20h1.6v-9.1h-1.6V8.3h6.3c1,0,2,0.1,2.9,0.3c2.8,0.8,4.8,3.2,4.8,6.8c0,3.3-1.7,5.7-4.3,6.7
			c-1.1,0.4-2.3,0.5-3.4,0.5h-6.3C120.5,22.6,120.5,20,120.5,20z M126.7,19.8c0.7,0,1.5-0.1,2.2-0.4c1.2-0.6,1.9-2,1.9-3.9
			c0-2.1-0.9-3.5-2.2-4c-0.6-0.2-1.3-0.3-1.9-0.3h-1v8.7L126.7,19.8z"/>
		<path class="bd0" d="M136.6,20h1.6v-9.1h-1.6V8.3h11v4.2h-3v-1.4h-2.8V14h4.2v2.8h-4.2v3h3.1v-1.4h3v4.2h-11.2V20H136.6z"/>
		<path class="bd1" d="M16.2,0c5.7,0.7,11.3,2,16.2,5.1C32,13.3,31,20.8,28,26.1c-3.1,3.9-7.1,6.9-11.8,8.7C11.5,33,7.5,30,4.4,26.1
			c-3-5.3-3.9-12.8-4.4-21C4.9,2,10.4,0.7,16.2,0"/>
		<path class="bd2" d="M5,20h1.6v-9.6H5V7.6h6.5v2.7h-1.1v3.2h1.3l2.2-3.2h-1.1V7.6H19v2.7h-1.3l-3.2,4.3v0.1
			c0.1,0.1,0.3,0.2,0.4,0.3c0.3,0.3,0.6,0.7,0.8,1.1l1.7,3.4c0.2,0.3,0.6,0.5,0.9,0.5h0.6v2.7h-2.6c-1.3,0-1.7-0.4-2.1-1.1L12,17
			c-0.2-0.4-0.5-0.5-1.1-0.5h-0.5V20H12v2.7H5V20z"/>
		<path class="bd2" d="M23.6,18.3c0.5,0.1,0.9-0.3,1-0.8c0-0.1,0-0.2,0-0.2c0-0.9-0.7-1.6-1.6-1.7c-0.7,0.1-1.2,0.6-1.1,1.3
			C21.9,17.5,22.3,18.3,23.6,18.3 M23,13.3c2.2,0,4.2,1.6,4.2,4.8c0,3-1.7,5.8-5.1,5.8c-0.5,0-1.1-0.1-1.6-0.2l-0.6-0.2l0.7-2.1
			c0.1,0.1,0.3,0.1,0.5,0.1c0.3,0.1,0.7,0.1,1,0.2c1.1,0,2.1-0.7,2.3-1.8l0,0c-0.5,0.3-1,0.4-1.6,0.4c-1.9,0-3.4-1.5-3.4-3.4l0,0
			C19.3,14.9,21,13.3,23,13.3L23,13.3"/>
	</g>
</g>
</svg>
