<svg xmlns="http://www.w3.org/2000/svg" id="ak9demia" x="0px" y="0px" viewbox="0 0 118.9 36.4" style="enable-background:new 0 0 118.9 36.4;" xml:space="preserve">
	<style type="text/css">
		.ab0 {
			fill: #004E57;
		}
		.ab1 {
			fill: #C5CE2F;
		}
		.ab2 {
			fill: #1087A5;
		}
	</style>
	<g id="Capa_2_00000013905381886033718460000013155385733053965500_">
		<g id="Capa_1-2">
			<path class="ab0" d="M8.1,15.4l-0.7-2.6c-0.1-0.4-0.2-0.7-0.2-1.1l-0.1-0.4H7c0,0.1,0,0.3,0,0.4c-0.1,0.3-0.1,0.6-0.2,1.1L6,15.4
											H8.1z M0,20h1.2L5.1,8.4h4.1L13,20h1.2v2.6h-6V20h1.2l-0.5-1.9H5.2L4.7,20h1.2v2.6H0V20z"/>
			<path class="ab0" d="M53.4,19.8c0.7,0,1.5-0.1,2.2-0.4c1.2-0.6,1.9-2,1.9-3.9c0-2.1-0.9-3.5-2.2-4c-0.6-0.2-1.3-0.3-1.9-0.3h-1
											v8.6H53.4z M47.2,20h1.6v-9h-1.6V8.4h6.3c1,0,2,0.1,2.9,0.3c2.8,0.8,4.8,3.2,4.8,6.8c0,3.3-1.7,5.7-4.3,6.6
											c-1.1,0.4-2.2,0.5-3.4,0.5h-6.3V20z"/>
			<polygon class="ab0" points="63.2,20 64.8,20 64.8,11 63.2,11 63.2,8.4 74.1,8.4 74.1,12.6 71.1,12.6 71.1,11.2 68.3,11.2
											68.3,14 72.5,14 72.5,16.8 68.3,16.8 68.3,19.8 71.4,19.8 71.4,18.4 74.4,18.4 74.4,22.6 63.2,22.6 		"/>
			<path class="ab0" d="M76.3,20h1.6l0.8-9H77V8.4h5.6l2.4,7c0.2,0.5,0.3,0.8,0.3,1.1c0,0.1,0.1,0.3,0.1,0.4l0,0c0-0.1,0-0.3,0.1-0.4
											c0.1-0.2,0.2-0.6,0.3-1.1l2.4-7h5.6V11h-1.6l0.8,9h1.6v2.6h-6.4V20h1.4l-0.3-5.1c0-0.3,0-0.7,0-1l0.1-0.6h-0.1
											c0,0.2-0.1,0.4-0.1,0.5c-0.1,0.3-0.1,0.7-0.3,1L86.9,20h-3L82,14.8c-0.1-0.3-0.2-0.7-0.3-1c0-0.2-0.1-0.4-0.1-0.5h-0.1l0.1,0.6
											c0,0.3,0,0.7,0,1L81.3,20h1.4v2.6h-6.4V20z"/>
			<polygon class="ab0" points="96.4,20 98,20 98,11 96.4,11 96.4,8.4 103.2,8.4 103.2,11 101.6,11 101.6,20 103.2,20 103.2,22.6
											96.4,22.6 		"/>
			<path class="ab0" d="M112.8,15.4l-0.7-2.6c-0.1-0.4-0.2-0.7-0.2-1.1l-0.1-0.4h-0.1c0,0.1,0,0.3,0,0.4c-0.1,0.3-0.1,0.6-0.2,1.1
											l-0.8,2.6H112.8z M104.7,20h1.2l3.9-11.6h4.1l3.9,11.6h1.2v2.6h-5.9V20h1.2l-0.5-1.9h-3.7l-0.5,1.9h1.2v2.6h-5.9V20z"/>
			<path class="ab0" d="M29.9,0c5.8,0.7,11.3,2.1,16.2,5.1c-0.4,8.2-1.4,15.8-4.4,21.1c-3.1,3.9-7.2,6.9-11.8,8.7
											c-4.6-1.8-8.7-4.8-11.8-8.7c-3-5.3-4-12.9-4.4-21.1C18.6,2.1,24.1,0.7,29.9,0"/>
			<path class="ab1" d="M18.6,20h1.7v-9.6h-1.7V7.7h6.6v2.7h-1.1v3.2h1.3l2.2-3.2h-1.1V7.7h6.2v2.7h-1.3l-3.2,4.3l0,0
											c0.1,0.1,0.3,0.2,0.4,0.3c0.3,0.3,0.6,0.7,0.8,1.1l1.7,3.4c0.2,0.3,0.6,0.5,0.9,0.5h0.7v2.7h-2.6c-1.3,0-1.7-0.4-2.1-1.1L25.7,17
											c-0.2-0.4-0.5-0.5-1-0.5h-0.5V20h1.6v2.7h-7.1V20z"/>
			<path class="ab1" d="M37.3,18.3c0.5,0.1,0.9-0.3,1-0.8c0-0.1,0-0.1,0-0.2c0-0.9-0.7-1.7-1.6-1.8c-0.7,0.1-1.2,0.6-1.1,1.3
											C35.7,17.6,36.1,18.3,37.3,18.3 M36.8,13.4c2.2,0,4.2,1.6,4.2,4.8c0,3-1.7,5.9-5.1,5.9c-0.5,0-1.1-0.1-1.6-0.2
											c-0.2-0.1-0.4-0.1-0.6-0.2l0.7-2.1c0.1,0.1,0.3,0.1,0.5,0.1c0.3,0.1,0.7,0.1,1,0.2c1.1,0,2.1-0.7,2.3-1.8l0,0
											c-0.5,0.3-1,0.4-1.6,0.4c-1.9,0-3.4-1.5-3.4-3.4c0,0,0,0,0,0C33.1,14.9,34.8,13.3,36.8,13.4C36.8,13.4,36.8,13.4,36.8,13.4"/>
			<polygon class="ab2" points="47.5,29.3 48,29.3 48,25.9 47.5,25.9 47.5,25.6 48.9,25.6 48.9,25.9 48.4,25.9 48.4,29.3 48.9,29.3
											48.9,29.6 47.5,29.6 		"/>
			<path class="ab2" d="M49.7,29.3h0.5v-2.1c0-0.1,0-0.1-0.1-0.1h-0.4v-0.3h0.5c0.2,0,0.3,0.1,0.3,0.3v0.2c0,0,0,0.1,0,0.1v0.1l0,0
											c0.2-0.5,0.7-0.8,1.2-0.8c0.7,0,1,0.4,1,1.1v1.5h0.5v0.3h-0.9v-1.7c0-0.5-0.1-0.8-0.6-0.8c-0.6,0-1.1,0.5-1.1,1.2c0,0,0,0,0,0v1.1
											H51v0.3h-1.3V29.3z"/>
			<path class="ab2" d="M53.7,29.3h0.5v-2.1c0-0.1,0-0.1-0.1-0.1h-0.4v-0.3h0.5c0.2,0,0.3,0.1,0.3,0.3v0.2c0,0,0,0.1,0,0.1v0.1l0,0
											c0.2-0.5,0.7-0.8,1.2-0.8c0.7,0,1,0.4,1,1.1v1.5h0.5v0.3h-0.9v-1.7c0-0.5-0.1-0.8-0.6-0.8c-0.6,0-1.1,0.5-1.1,1.2c0,0,0,0,0,0v1.1
											H55v0.3h-1.3V29.3z"/>
			<path class="ab2" d="M59.2,29.3c0.6,0,1.1-0.5,1.1-1.1c0,0,0,0,0,0c0-0.6-0.5-1.1-1.1-1.1s-1.1,0.5-1.1,1.1
											C58.1,28.8,58.6,29.3,59.2,29.3C59.2,29.3,59.2,29.3,59.2,29.3 M59.2,26.7c0.8,0,1.5,0.7,1.5,1.5c0,0.8-0.7,1.5-1.5,1.5
											c-0.8,0-1.5-0.7-1.5-1.5C57.7,27.3,58.4,26.7,59.2,26.7C59.2,26.7,59.2,26.7,59.2,26.7"/>
			<path class="ab2" d="M61.2,26.7h1.2V27h-0.4l0.7,2c0,0,0,0.1,0,0.1v0.1l0,0v-0.1c0,0,0-0.1,0-0.1l0.7-1.9H63v-0.3h1.2v0.3h-0.4
											l-1,2.5h-0.3l-1-2.5h-0.4L61.2,26.7z"/>
			<path class="ab2" d="M65.7,29.3c0.5-0.1,0.9-0.5,0.9-1.1v-0.1h-0.2c-0.2,0-1.3,0-1.3,0.6C65.1,29.1,65.4,29.3,65.7,29.3
											C65.7,29.3,65.7,29.3,65.7,29.3 M66.4,27.8h0.2v-0.1c0-0.5-0.3-0.7-0.7-0.7c-0.2,0-0.4,0-0.6,0.1c-0.1,0-0.2,0.1-0.2,0.1L64.9,27
											c0.1-0.1,0.2-0.1,0.3-0.2c0.2-0.1,0.5-0.2,0.8-0.2c0.6,0,1,0.4,1.1,0.9c0,0,0,0.1,0,0.1v1.4c0,0.1,0,0.1,0.1,0.1c0,0,0,0,0,0h0.3
											v0.3H67c-0.2,0-0.3-0.1-0.3-0.3v0c0-0.1,0-0.1,0-0.2l0,0l0,0c-0.1,0.1-0.1,0.2-0.2,0.3c-0.2,0.2-0.5,0.3-0.8,0.3
											c-0.5,0.1-0.9-0.3-1-0.7c0,0,0-0.1,0-0.1C64.7,27.9,65.9,27.9,66.4,27.8"/>
			<path class="ab2" d="M69.5,26.7c0.4,0,1,0.1,1,0.6v0.3h-0.3v-0.2c0-0.2-0.4-0.4-0.7-0.4c-0.6,0-1.1,0.5-1.1,1.2
											c0,0.6,0.5,1.1,1.1,1.1c0.4,0,0.7-0.1,0.9-0.4l0.2,0.3c-0.3,0.3-0.7,0.4-1.1,0.4c-0.8,0-1.5-0.7-1.5-1.5S68.7,26.7,69.5,26.7"/>
			<path class="ab2" d="M71.8,25.6h0.4v0.5h-0.4V25.6z M71.3,29.3h0.5V27h-0.5v-0.3h0.9v2.5h0.5v0.3h-1.4V29.3z"/>
			<path class="ab2" d="M75.1,25.6h0.5l-0.7,0.7h-0.4L75.1,25.6z M74.8,29.3c0.6,0,1.1-0.5,1.1-1.1c0,0,0,0,0,0
											c0-0.6-0.5-1.1-1.1-1.1s-1.1,0.5-1.1,1.1C73.7,28.8,74.2,29.3,74.8,29.3C74.8,29.3,74.8,29.3,74.8,29.3 M74.8,26.7
											c0.8,0,1.5,0.7,1.5,1.5c0,0.8-0.7,1.5-1.5,1.5c-0.8,0-1.5-0.7-1.5-1.5C73.3,27.3,74,26.7,74.8,26.7C74.8,26.7,74.8,26.7,74.8,26.7
											"/>
			<path class="ab2" d="M77,29.3h0.5v-2.1c0-0.1,0-0.1-0.1-0.1c0,0,0,0,0,0H77v-0.3h0.6c0.2,0,0.3,0.1,0.3,0.3v0.2c0,0,0,0.1,0,0.1
											v0.1l0,0c0.2-0.5,0.7-0.8,1.2-0.8c0.7,0,1,0.4,1,1.1v1.5h0.5v0.3h-0.9v-1.7c0-0.5-0.1-0.8-0.6-0.8c-0.6,0-1.1,0.5-1.1,1.2
											c0,0,0,0,0,0v1.1h0.5v0.3H77V29.3z"/>
			<path class="ab2" d="M84.9,27.9c0-0.4-0.3-0.8-0.7-0.9c0,0-0.1,0-0.1,0c-0.5,0-0.9,0.4-1,0.9H84.9z M84.1,26.7
											c0.7,0,1.2,0.5,1.2,1.2c0,0,0,0.1,0,0.1v0.2h-2.2c0,0.6,0.4,1.1,1,1.1c0,0,0.1,0,0.1,0c0.2,0,0.4-0.1,0.6-0.2
											c0.1,0,0.1-0.1,0.2-0.2l0.2,0.3c-0.3,0.3-0.7,0.4-1.1,0.4c-0.8,0-1.5-0.6-1.5-1.4c0,0,0-0.1,0-0.1c-0.1-0.8,0.5-1.4,1.3-1.5
											C84,26.7,84,26.7,84.1,26.7"/>
			<path class="ab2" d="M86,29.3h0.5v-2.1c0-0.1,0-0.1-0.1-0.1c0,0,0,0,0,0H86v-0.3h0.6c0.2,0,0.3,0.1,0.3,0.3v0.2c0,0,0,0.1,0,0.1
											v0.1l0,0c0.2-0.5,0.6-0.7,1.1-0.8c0.7,0,1,0.4,1,1.1v1.5h0.5v0.3h-0.9v-1.7c0-0.5-0.1-0.8-0.6-0.8c-0.6,0-1.1,0.5-1.1,1.2
											c0,0,0,0,0,0v1.1h0.5v0.3H86V29.3z"/>
			<path class="ab2" d="M93.8,27.9c0-0.4-0.3-0.8-0.7-0.9c0,0,0,0-0.1,0c-0.5,0-0.9,0.4-1,0.9L93.8,27.9z M93,26.7
											c0.7,0,1.2,0.5,1.2,1.2c0,0,0,0.1,0,0.1v0.2H92c0,0.6,0.4,1.1,1,1.1c0,0,0.1,0,0.1,0c0.2,0,0.4-0.1,0.6-0.2c0.1,0,0.2-0.1,0.3-0.2
											l0.2,0.3c-0.3,0.3-0.7,0.4-1.1,0.4c-0.8,0-1.5-0.6-1.5-1.4c0,0,0-0.1,0-0.1c-0.1-0.8,0.5-1.5,1.3-1.5C92.9,26.7,93,26.7,93,26.7"/>
			<path class="ab2" d="M95.2,25.9h-0.5v-0.3h0.9v3.3c0,0.2,0.1,0.4,0.3,0.4H96v0.3h-0.2c-0.4,0-0.7-0.2-0.7-0.7V25.9z"/>
			<path class="ab2" d="M99.7,26.7c0.4,0,1.1,0.1,1.1,0.6v0.3h-0.4v-0.2c0-0.2-0.4-0.4-0.7-0.4c-0.6,0-1.1,0.5-1.1,1.2
											c0,0.6,0.5,1.1,1.1,1.1c0.4,0,0.7-0.1,0.9-0.4l0.2,0.3c-0.3,0.3-0.7,0.4-1.1,0.4c-0.8,0-1.5-0.6-1.5-1.4c0,0,0-0.1,0-0.1
											C98.2,27.4,98.9,26.7,99.7,26.7C99.7,26.7,99.7,26.7,99.7,26.7"/>
			<path class="ab2" d="M103.1,29.3c0.6,0,1.1-0.5,1.1-1.1c0,0,0,0,0,0c0-0.6-0.5-1.1-1.1-1.1s-1.1,0.5-1.1,1.1
											C101.9,28.8,102.4,29.3,103.1,29.3C103,29.3,103,29.3,103.1,29.3 M103.1,26.7c0.8,0,1.5,0.7,1.5,1.5c0,0.8-0.7,1.5-1.5,1.5
											c-0.8,0-1.5-0.7-1.5-1.5C101.5,27.3,102.2,26.7,103.1,26.7C103,26.7,103,26.7,103.1,26.7"/>
			<path class="ab2" d="M105.3,29.3h0.5v-2.1c0-0.1,0-0.1-0.1-0.1c0,0,0,0,0,0h-0.4v-0.3h0.5c0.2,0,0.3,0.1,0.3,0.3v0.2
											c0,0,0,0.1,0,0.1v0.1l0,0c0.2-0.5,0.7-0.8,1.2-0.8c0.7,0,1,0.4,1,1.1v1.5h0.5v0.3h-0.9v-1.7c0-0.5-0.1-0.8-0.6-0.8
											c-0.6,0-1.1,0.5-1.1,1.2c0,0,0,0,0,0v1.1h0.5v0.3h-1.3L105.3,29.3z"/>
			<path class="ab2" d="M109.6,27h-0.5v-0.3h0.5v-0.8h0.4v0.8h0.7V27H110v1.5c0,0.7,0.4,0.8,0.7,0.8h0.1v0.3h-0.2c-0.5,0-1-0.3-1-0.8
											c0-0.1,0-0.1,0-0.2L109.6,27z"/>
			<path class="ab2" d="M111.4,29.3h0.4v-2.1c0-0.1,0-0.1-0.1-0.1c0,0,0,0,0,0h-0.4v-0.3h0.5c0.2,0,0.3,0.1,0.3,0.3v0.2
											c0,0,0,0.1,0,0.1v0.1l0,0c0.1-0.4,0.5-0.7,0.9-0.8h0.2v0.4h-0.1c-0.7,0-0.9,0.7-0.9,1.3v0.9h0.4v0.3h-1.3L111.4,29.3z"/>
			<path class="ab2" d="M115.3,29.3c0.6,0,1.1-0.5,1.1-1.1c0,0,0,0,0,0c0-0.6-0.5-1.1-1.1-1.1s-1.1,0.5-1.1,1.1
											C114.2,28.8,114.7,29.3,115.3,29.3C115.3,29.3,115.3,29.3,115.3,29.3 M115.3,26.7c0.8,0,1.5,0.7,1.5,1.5c0,0.8-0.7,1.5-1.5,1.5
											c-0.8,0-1.5-0.7-1.5-1.5c0,0,0,0,0,0C113.8,27.3,114.5,26.7,115.3,26.7C115.3,26.7,115.3,26.7,115.3,26.7"/>
			<path class="ab2" d="M117.8,25.9h-0.5v-0.3h0.9v3.3c0,0.2,0.1,0.4,0.3,0.4h0.2v0.3h-0.2c-0.4,0-0.7-0.2-0.7-0.7V25.9z"/>
			<path class="ab2" d="M48.7,35c0.5,0,0.9-0.3,0.9-1.2c0-0.6-0.3-1.2-0.9-1.2s-0.9,0.4-0.9,1.2S48.2,35,48.7,35 M48.7,32.3
											c0.3,0,0.5,0.1,0.7,0.3c0.1,0.1,0.2,0.2,0.2,0.3l0,0v-0.1c0-0.1,0-0.1,0-0.2v-1.1h-0.5v-0.3H50v3.6c0,0.1,0,0.1,0.1,0.1h0.3v0.3
											H50c-0.2,0-0.3-0.1-0.3-0.3v-0.1c0,0,0-0.1,0-0.1l0,0l0,0c0,0.1-0.1,0.2-0.2,0.3c-0.2,0.2-0.5,0.3-0.8,0.3c-0.8,0-1.2-0.6-1.2-1.5
											c-0.1-0.7,0.4-1.4,1.1-1.5C48.6,32.4,48.7,32.4,48.7,32.3"/>
			<path class="ab2" d="M53.3,33.6c0-0.5-0.3-0.9-0.7-0.9c0,0,0,0-0.1,0c-0.5,0-0.9,0.4-1,0.9H53.3z M52.5,32.3
											c0.7,0,1.2,0.5,1.2,1.2c0,0,0,0.1,0,0.1v0.1v0.1h-2.2c0,0.6,0.4,1.1,1,1.1c0,0,0.1,0,0.1,0c0.2,0,0.4-0.1,0.6-0.2
											c0.1,0,0.2-0.1,0.2-0.2l0.2,0.3c-0.1,0.1-0.2,0.1-0.3,0.2c-0.2,0.1-0.5,0.2-0.8,0.2c-0.8,0-1.5-0.6-1.5-1.4c0,0,0-0.1,0-0.1
											c-0.1-0.8,0.5-1.4,1.3-1.5C52.4,32.4,52.4,32.3,52.5,32.3"/>
			<path class="ab2" d="M56.1,31.6h-0.5v-0.3h0.9v3.2c0,0.2,0.1,0.4,0.3,0.4H57v0.3h-0.2c-0.4,0-0.7-0.2-0.7-0.7L56.1,31.6z"/>
			<path class="ab2" d="M58.5,35c0.5-0.1,0.9-0.5,0.9-1.1v-0.1h-0.2c-0.2,0-1.3,0-1.3,0.6C57.9,34.7,58.2,35,58.5,35
											C58.5,35,58.5,35,58.5,35 M59.2,33.5h0.2v-0.1c0-0.5-0.3-0.7-0.7-0.7c-0.3,0-0.6,0.1-0.8,0.3l-0.2-0.3c0.1-0.1,0.2-0.1,0.3-0.2
											c0.2-0.1,0.5-0.2,0.8-0.2c0.5,0,1,0.4,1,0.9c0,0.1,0,0.1,0,0.2v1.4c0,0.1,0,0.1,0.1,0.1h0.3v0.3h-0.5c-0.2,0-0.3-0.1-0.3-0.3v0
											c0-0.1,0-0.1,0-0.2v-0.1l0,0c-0.1,0.1-0.1,0.2-0.2,0.3c-0.2,0.2-0.5,0.3-0.8,0.3c-0.5,0.1-0.9-0.3-1-0.7c0,0,0-0.1,0-0.1
											C57.4,33.5,58.7,33.5,59.2,33.5"/>
			<path class="ab2" d="M62.3,35h0.5v-3.4h-0.5v-0.3h0.9v1.6c0,0.1,0,0.1,0,0.2v0.1l0,0c0.2-0.4,0.7-0.7,1.1-0.7c0.7,0,1,0.4,1,1.1
											V35h0.5v0.3h-0.9v-1.8c0-0.5-0.1-0.8-0.6-0.8c-0.6,0-1.1,0.5-1.1,1.2c0,0,0,0,0,0V35h0.5v0.3h-1.4V35z"/>
			<path class="ab2" d="M66.7,31.3h0.4v0.5h-0.4V31.3z M66.2,35h0.5v-2.3h-0.5v-0.3h0.9V35h0.5v0.3h-1.4V35z"/>
			<path class="ab2" d="M69.8,35c0.5,0,0.9-0.4,0.9-1.2s-0.4-1.2-0.9-1.2s-0.9,0.3-0.9,1.2C68.8,34.4,69.2,34.9,69.8,35
											C69.8,35,69.8,35,69.8,35 M68.5,36.1v-3.2c0-0.1,0-0.1-0.1-0.1H68v-0.3h0.5c0.2,0,0.3,0.1,0.3,0.3l0,0c0,0,0,0.1,0,0.1v0.1l0,0
											c0.1-0.1,0.1-0.2,0.2-0.3c0.2-0.2,0.5-0.3,0.8-0.3c0.8,0,1.2,0.6,1.2,1.5c0.1,0.7-0.4,1.4-1.1,1.5c0,0-0.1,0-0.1,0
											c-0.3,0-0.5-0.1-0.7-0.3C69,35,69,34.9,68.9,34.8l0,0v0.1c0,0.1,0,0.1,0,0.2v1.1h0.5v0.3h-1.3v-0.3H68.5z"/>
			<path class="ab2" d="M74,33.6c0-0.4-0.3-0.8-0.7-0.9c0,0-0.1,0-0.1,0c-0.5,0-0.9,0.4-1,0.9H74z M73.2,32.3c0.7,0,1.2,0.5,1.2,1.2
											c0,0,0,0.1,0,0.1c0,0,0,0.1,0,0.1v0.1h-2.2c0,0.6,0.4,1.1,1,1.1c0,0,0,0,0.1,0c0.2,0,0.4-0.1,0.6-0.2c0.1,0,0.2-0.1,0.2-0.2
											l0.2,0.3c-0.1,0.1-0.2,0.1-0.3,0.2c-0.2,0.1-0.5,0.2-0.8,0.2c-0.8,0-1.5-0.6-1.5-1.4c0,0,0-0.1,0-0.1c-0.1-0.8,0.5-1.4,1.3-1.5
											C73.2,32.4,73.2,32.3,73.2,32.3"/>
			<path class="ab2" d="M75.1,35h0.4v-2.1c0-0.1,0-0.1-0.1-0.1h-0.4v-0.3h0.5c0.2,0,0.3,0.1,0.3,0.3v0.4l0,0c0.1-0.4,0.5-0.7,0.9-0.8
											H77v0.4h-0.2c-0.6,0-0.9,0.7-0.9,1.3V35h0.4v0.3h-1.3V35z"/>
			<path class="ab2" d="M79,32.3c0.4,0,1.1,0.2,1.1,0.6v0.3h-0.4v-0.2c0-0.3-0.4-0.4-0.7-0.4c-0.6,0.1-1.1,0.6-1.1,1.3
											c0,0.6,0.5,1,1,1.1c0.3,0,0.7-0.1,0.9-0.4l0.2,0.3c-0.3,0.3-0.7,0.5-1.1,0.5c-0.8,0-1.5-0.6-1.5-1.4c0,0,0-0.1,0-0.1
											C77.5,33,78.1,32.4,79,32.3C78.9,32.3,79,32.3,79,32.3"/>
			<path class="ab2" d="M82.2,35c0.6,0,1.1-0.5,1.1-1.1c0,0,0,0,0,0c0.1-0.6-0.4-1.2-1-1.2s-1.2,0.4-1.2,1c0,0.1,0,0.1,0,0.2
											C81.1,34.5,81.6,35,82.2,35C82.2,35,82.2,35,82.2,35 M82.2,32.3c0.8,0,1.5,0.7,1.5,1.5s-0.7,1.5-1.5,1.5s-1.5-0.7-1.5-1.5
											c0,0,0,0,0,0C80.7,33,81.4,32.3,82.2,32.3C82.2,32.3,82.2,32.3,82.2,32.3"/>
			<path class="ab2" d="M84.6,31.6h-0.5v-0.3H85v3.2c0,0.2,0.1,0.4,0.3,0.4h0.2v0.3h-0.2c-0.4,0-0.7-0.2-0.7-0.7L84.6,31.6z"/>
			<path class="ab2" d="M88.3,33.6c0-0.5-0.3-0.9-0.7-0.9c0,0,0,0-0.1,0c-0.5,0-0.9,0.4-1,0.9H88.3z M87.5,32.3
											c0.7,0,1.2,0.5,1.2,1.2c0,0,0,0.1,0,0.1v0.2h-2.2c0,0.6,0.4,1.1,1,1.1c0,0,0,0,0.1,0c0.2,0,0.4-0.1,0.6-0.2c0.1,0,0.2-0.1,0.2-0.2
											l0.2,0.3l-0.3,0.2c-0.2,0.1-0.5,0.2-0.8,0.2c-0.8,0-1.5-0.6-1.5-1.4c0,0,0-0.1,0-0.1c-0.1-0.8,0.5-1.4,1.3-1.5
											C87.4,32.4,87.4,32.3,87.5,32.3"/>
			<path class="ab2" d="M89.3,34.4h0.3v0.2c0,0.3,0.4,0.4,0.7,0.4s0.7-0.2,0.7-0.5s-0.4-0.4-0.8-0.6s-0.9-0.3-0.9-0.8s0.5-0.8,1-0.8
											s0.9,0.2,0.9,0.6v0.3H91V33c0-0.2-0.3-0.3-0.6-0.3s-0.6,0.1-0.6,0.4s0.3,0.4,0.7,0.6s0.9,0.3,0.9,0.9s-0.4,0.8-1.1,0.8
											s-1.1-0.2-1.1-0.7L89.3,34.4z"/>
			<path class="ab2" d="M92.5,32.7H92v-0.3h0.5v-0.8h0.4v0.8h0.7v0.3h-0.7v1.5c0,0.7,0.4,0.8,0.7,0.8h0.1v0.3h-0.2
											c-0.5,0-1-0.3-1-0.8c0-0.1,0-0.1,0-0.2V32.7z"/>
			<path class="ab2" d="M96.4,33.6c0-0.5-0.3-0.9-0.7-0.9c0,0,0,0-0.1,0c-0.5,0-0.9,0.4-1,0.9H96.4z M95.6,32.3
											c0.7,0,1.2,0.5,1.2,1.2c0,0,0,0.1,0,0.1v0.1v0.1h-2.2c0,0.6,0.4,1.1,1,1.1c0,0,0,0,0.1,0c0.2,0,0.4-0.1,0.6-0.2
											c0.1,0,0.2-0.1,0.2-0.2l0.2,0.3c-0.1,0.1-0.2,0.1-0.3,0.2c-0.2,0.1-0.5,0.2-0.8,0.2c-0.8,0-1.5-0.6-1.5-1.4c0,0,0-0.1,0-0.1
											c-0.1-0.8,0.5-1.4,1.3-1.5C95.6,32.4,95.6,32.3,95.6,32.3"/>
			<path class="ab2" d="M97.5,35H98v-2.1c0-0.1,0-0.1-0.1-0.1h-0.4v-0.3H98c0.2,0,0.3,0.1,0.3,0.3V33c0,0.1,0,0.1,0,0.2v0.1l0,0
											c0.1-0.4,0.5-0.7,0.9-0.8h0.2v0.4h-0.2c-0.6,0-0.9,0.7-0.9,1.3V35h0.4v0.3h-1.3V35z"/>
			<path class="ab2" d="M101.4,35c0.6,0,1.1-0.5,1.1-1.1c0,0,0,0,0,0c0-0.6-0.5-1.1-1.1-1.1s-1.1,0.5-1.1,1.1
											C100.3,34.5,100.8,35,101.4,35C101.4,35,101.4,35,101.4,35 M101.4,32.3c0.8,0,1.5,0.6,1.5,1.4c0,0,0,0,0,0
											c0.1,0.8-0.5,1.6-1.3,1.7s-1.6-0.5-1.7-1.3c0-0.1,0-0.2,0-0.3C99.9,33,100.6,32.3,101.4,32.3C101.4,32.3,101.4,32.3,101.4,32.3"/>
			<path class="ab2" d="M103.8,31.6h-0.5v-0.3h0.9v3.2c0,0.2,0.1,0.4,0.3,0.4h0.2v0.3h-0.2c-0.4,0-0.7-0.2-0.7-0.7V31.6z"/>
			<path class="ab2" d="M107.4,33.6c0-0.4-0.3-0.8-0.7-0.9c0,0-0.1,0-0.1,0c-0.5,0-0.9,0.4-1,0.9H107.4z M106.7,32.3
											c0.7,0,1.2,0.5,1.2,1.2c0,0,0,0.1,0,0.1c0,0,0,0.1,0,0.1v0.1h-2.2c0,0.6,0.4,1.1,1,1.1c0,0,0,0,0,0c0.2,0,0.4-0.1,0.6-0.2
											c0.1,0,0.2-0.1,0.2-0.2l0.2,0.3c-0.1,0.1-0.2,0.1-0.3,0.2c-0.2,0.1-0.5,0.2-0.8,0.2c-0.8,0-1.5-0.6-1.5-1.4c0,0,0-0.1,0-0.1
											c-0.1-0.8,0.5-1.4,1.3-1.5C106.6,32.4,106.6,32.3,106.7,32.3"/>
			<path class="ab2" d="M108.5,35h0.5v-2.1c0-0.1,0-0.1-0.1-0.1h-0.4v-0.3h0.5c0.2,0,0.3,0.1,0.3,0.3v0.2c0,0.1,0,0.1,0,0.1v0.1l0,0
											c0.2-0.4,0.6-0.7,1.1-0.8c0.4-0.1,0.8,0.2,0.9,0.7c0,0,0,0,0,0.1l0,0c0.2-0.4,0.6-0.7,1.1-0.7c0.7,0,0.9,0.4,0.9,1.1V35h0.5v0.3
											h-0.9v-1.8c0-0.5-0.1-0.8-0.6-0.8c-0.6,0.1-1.1,0.6-1,1.2V35h0.5v0.3H111v-1.8c0-0.4-0.1-0.8-0.6-0.8s-1,0.6-1,1.2v1h0.5v0.3h-1.3
											L108.5,35z"/>
			<path class="ab2" d="M114.8,31.3h0.4v0.5h-0.4V31.3z M114.3,35h0.5v-2.3h-0.5v-0.3h0.9V35h0.5v0.3h-1.3L114.3,35z"/>
			<path class="ab2" d="M117.2,35c0.5-0.1,0.9-0.5,0.9-1.1v-0.1h-0.2c-0.2,0-1.3,0-1.3,0.6C116.6,34.7,116.8,35,117.2,35
									C117.2,35,117.2,35,117.2,35 M117.9,33.5h0.2v-0.1c0-0.5-0.3-0.7-0.7-0.7c-0.2,0-0.4,0-0.6,0.1c-0.1,0-0.2,0.1-0.2,0.1l-0.2-0.3
									c0.1-0.1,0.2-0.1,0.3-0.2c0.2-0.1,0.5-0.2,0.8-0.2c0.5,0,1,0.4,1,0.9c0,0.1,0,0.1,0,0.2v1.4c0,0.1,0,0.1,0.1,0.1h0.3v0.3h-0.5
									c-0.2,0-0.3-0.1-0.3-0.3v0c0-0.1,0-0.1,0-0.2v-0.1l0,0c-0.1,0.1-0.1,0.2-0.2,0.3c-0.2,0.2-0.5,0.3-0.8,0.3c-0.5,0.1-0.9-0.3-1-0.8
									c0,0,0-0.1,0-0.1c0-0.9,1.2-1,1.7-1"/>
		</g>
	</g>
</svg>
