<svg version="1.1" id="medea" alt="Medea" xmlns="http://www.w3.org/2000/svg" xmlns:xlink="http://www.w3.org/1999/xlink" x="0px" y="0px" viewBox="0 0 190 58" style="enable-background:new 0 0 190 58;" xml:space="preserve">
	<style type="text/css">
		.y4p {
			fill: #3961ab;
		}
	</style>
	<g>
		<path class="y4p" d="M77,32.3h-23c-0.4,0-0.7,0.3-0.7,0.7v4.6c0,0.4,0.3,0.7,0.7,0.7h23c0.4,0,0.7-0.3,0.7-0.7V33
											C77.7,32.5,77.5,32.3,77,32.3"></path>
		<path class="y4p" d="M77,16.4h-23c-0.4,0-0.7,0.3-0.7,0.7v4.6c0,0.4,0.3,0.7,0.7,0.7h23c0.4,0,0.7-0.3,0.7-0.7v-4.6
											C77.7,16.7,77.5,16.4,77,16.4"></path>
		<path class="y4p" d="M77,0.6h-23c-0.4,0-0.7,0.3-0.7,0.7V6c0,0.4,0.3,0.7,0.7,0.7h23c0.4,0,0.7-0.3,0.7-0.7V1.3
											C77.7,0.9,77.5,0.6,77,0.6"></path>
		<path class="y4p" d="M115.2,19.4c0-9-5.9-17.9-17.7-18.7c-0.6-0.1-1.6-0.1-3.1-0.1h-8.9c-0.4,0-0.7,0.3-0.7,0.7V6
											c0,0.4,0.3,0.7,0.7,0.7h10.2c3.6,0,6.4,1.1,8.5,2.9c0,0,0.1,0.1,0.1,0.1c0,0,0.1,0.1,0.1,0.1c2.7,2.5,4.1,6.1,4.1,9.7
											c0,3.6-1.4,7.2-4.1,9.7c0,0-0.1,0.1-0.1,0.1c0,0-0.1,0.1-0.1,0.1c-2.1,1.8-4.9,2.9-8.5,2.9H85.5c-0.4,0-0.7,0.3-0.7,0.7v4.6
											c0,0.4,0.3,0.7,0.7,0.7h8.9h0l0,0.1c1.5,0,2.5,0,3.1-0.1c0.9-0.1,1.8-0.2,2.7-0.4c6.6-1.3,11.1-5.3,13.3-10.3
											C114.6,25,115.2,22.3,115.2,19.4C115.2,19.5,115.2,19.4,115.2,19.4C115.2,19.4,115.2,19.4,115.2,19.4L115.2,19.4"></path>
		<path class="y4p" d="M146,32.3h-23c-0.4,0-0.7,0.3-0.7,0.7v4.6c0,0.4,0.3,0.7,0.7,0.7h23c0.4,0,0.7-0.3,0.7-0.7V33
											C146.7,32.5,146.4,32.3,146,32.3"></path>
		<path class="y4p" d="M146,0.6h-23c-0.4,0-0.7,0.3-0.7,0.7V6c0,0.4,0.3,0.7,0.7,0.7h23c0.4,0,0.7-0.3,0.7-0.7V1.3
											C146.7,0.9,146.4,0.6,146,0.6"></path>
		<path class="y4p" d="M146,16.4h-23c-0.4,0-0.7,0.3-0.7,0.7v4.6c0,0.4,0.3,0.7,0.7,0.7h23c0.4,0,0.7-0.3,0.7-0.7v-4.6
											C146.7,16.7,146.4,16.4,146,16.4"></path>
		<path class="y4p" d="M189.3,38.2l-17-37.1c-0.1-0.3-0.4-0.5-0.8-0.5c-0.3,0-0.7,0.2-0.8,0.5l-17,37.1c-0.2,0.4,0,0.6,0.4,0.6h5.3
											c0.4,0,0.8-0.3,1-0.6l10.4-22.6c0.2-0.4,0.4-0.6,0.6-0.6s0.4,0.2,0.6,0.6l4.8,10.6l5.5,12.1c0.2,0.4,0.6,0.6,1,0.6h5.3
											C189.3,38.8,189.5,38.6,189.3,38.2"></path>
		<path class="y4p" d="M39.9,0.6h-0.8c-0.4,0-0.9,0.3-1,0.6L24.9,26.4c-0.2,0.4-0.5,0.6-0.7,0.6c-0.4,0.2-0.7,0-0.7,0
											c-0.2,0-0.5-0.2-0.7-0.6L9.6,1.2C9.4,0.9,9,0.6,8.5,0.6H7.8C7.4,0.6,7,0.9,7,1.3L1.5,37.6c-0.1,0.4,0.2,0.7,0.6,0.7h5
											c0.4,0,0.8-0.3,0.8-0.7l3-19.3c0.1-0.9,0.5-1,0.9-0.2l10.3,19.5c0.2,0.4,0.6,0.6,1,0.6h0.7h0.1h0.7c0.4,0,0.8-0.3,1-0.6l10.3-19.5
											c0.4-0.8,0.8-0.7,0.9,0.2l3,19.3c0.1,0.4,0.4,0.7,0.8,0.7h5c0.4,0,0.6-0.3,0.6-0.7L40.7,1.3C40.7,0.9,40.3,0.6,39.9,0.6"></path>
		<g>
			<path class="y4p" d="M3.9,49.9h0.8L8,57.2H7.1l-0.9-1.9h-4l-0.9,1.9H0.6L3.9,49.9z M5.9,54.6l-1.7-3.7l-1.7,3.7H5.9z"></path>
			<path class="y4p" d="M12.6,50h0.8v3.2h4.2V50h0.8v7.3h-0.8V54h-4.2v3.3h-0.8V50z"></path>
			<path class="y4p" d="M23.1,49.9h0.8l3.3,7.3h-0.9l-0.9-1.9h-4l-0.9,1.9h-0.8L23.1,49.9z M25.2,54.6l-1.7-3.7l-1.7,3.7H25.2z"></path>
			<path class="y4p" d="M27,50h0.9l2.6,6.3l2.6-6.3H34l-3.1,7.3h-0.7L27,50z"></path>
			<path class="y4p" d="M37.1,49.9h0.8l3.3,7.3h-0.9l-0.9-1.9h-4l-0.9,1.9h-0.8L37.1,49.9z M39.1,54.6l-1.7-3.7l-1.7,3.7H39.1z"></path>
			<path class="y4p" d="M41.9,56.2l0.5-0.6c0.8,0.7,1.5,1,2.5,1c1,0,1.6-0.5,1.6-1.2v0c0-0.7-0.4-1.1-1.9-1.4
															c-1.7-0.4-2.4-0.9-2.4-2.1v0c0-1.1,1-2,2.4-2c1.1,0,1.8,0.3,2.6,0.9l-0.5,0.6c-0.7-0.6-1.4-0.8-2.1-0.8c-0.9,0-1.5,0.5-1.5,1.2v0
															c0,0.7,0.4,1.1,2,1.4c1.6,0.4,2.4,0.9,2.4,2.1v0c0,1.2-1,2.1-2.5,2.1C43.8,57.3,42.8,57,41.9,56.2z"></path>
			<path class="y4p" d="M52.2,50H53v3.2h4.2V50H58v7.3h-0.8V54H53v3.3h-0.8V50z"></path>
			<path class="y4p" d="M60.1,50h5.3v0.7h-4.4v2.5h4v0.7h-4v2.5h4.5v0.7h-5.3V50z"></path>
			<path class="y4p" d="M69.7,49.9h0.8l3.3,7.3h-0.9l-0.9-1.9h-4l-0.9,1.9h-0.8L69.7,49.9z M71.7,54.6l-1.7-3.7l-1.7,3.7H71.7z"></path>
			<path class="y4p" d="M75.2,50h0.8v6.5h4.1v0.8h-4.9V50z"></path>
			<path class="y4p" d="M82.5,50.7h-2.4V50h5.7v0.8h-2.4v6.5h-0.8V50.7z"></path>
			<path class="y4p" d="M87.4,50h0.8v3.2h4.2V50h0.8v7.3h-0.8V54h-4.2v3.3h-0.8V50z"></path>
			<path class="y4p" d="M102.5,56.2c-0.7,0.7-1.4,1.1-2.4,1.1c-1.3,0-2.3-0.8-2.3-2v0c0-1,0.6-1.7,1.8-2.1c-0.5-0.6-0.7-1-0.7-1.6v0
															c0-1,0.8-1.7,1.9-1.7c1,0,1.8,0.7,1.8,1.6v0c0,0.9-0.7,1.5-1.7,1.9l1.7,1.7c0.3-0.5,0.6-1,0.9-1.6l0.7,0.3c-0.3,0.7-0.7,1.3-1,1.8
															l1.3,1.3l-0.6,0.5L102.5,56.2z M102,55.7l-1.9-2c-1,0.4-1.4,0.9-1.4,1.6v0c0,0.8,0.6,1.4,1.5,1.4C100.8,56.6,101.4,56.3,102,55.7z
															 M101.8,51.5L101.8,51.5c0-0.6-0.4-1-1-1c-0.7,0-1.1,0.5-1.1,1v0c0,0.4,0.2,0.7,0.7,1.3C101.3,52.6,101.8,52.2,101.8,51.5z"></path>
			<path class="y4p" d="M111,54.4l-3-4.4h1l2.5,3.6l2.5-3.6h1l-3,4.4v2.9H111V54.4z"></path>
			<path class="y4p" d="M115.2,53.6L115.2,53.6c0-2,1.5-3.8,3.7-3.8c2.2,0,3.7,1.7,3.7,3.7v0c0,2-1.5,3.8-3.7,3.8
															C116.7,57.4,115.2,55.6,115.2,53.6z M121.8,53.6L121.8,53.6c0-1.7-1.2-3-2.9-3c-1.7,0-2.8,1.3-2.8,3v0c0,1.7,1.2,3,2.9,3
															C120.6,56.6,121.8,55.3,121.8,53.6z"></path>
			<path class="y4p" d="M124.2,54.2V50h0.8v4.2c0,1.6,0.8,2.5,2.2,2.5c1.3,0,2.2-0.8,2.2-2.4V50h0.8v4.2c0,2.1-1.2,3.2-3,3.2
															C125.5,57.3,124.2,56.2,124.2,54.2z"></path>
			<path class="y4p" d="M135,53.6L135,53.6c0-2.1,1.5-3.8,3.7-3.8c1.3,0,2.1,0.5,2.8,1.2l-0.6,0.6c-0.6-0.6-1.3-1-2.3-1
															c-1.6,0-2.8,1.3-2.8,3v0c0,1.7,1.2,3,2.8,3c1,0,1.7-0.4,2.3-1l0.5,0.5c-0.8,0.8-1.6,1.3-2.9,1.3C136.6,57.4,135,55.7,135,53.6z"></path>
			<path class="y4p" d="M142.5,53.6L142.5,53.6c0-2,1.5-3.8,3.7-3.8c2.2,0,3.7,1.7,3.7,3.7v0c0,2-1.5,3.8-3.7,3.8
															C144,57.4,142.5,55.6,142.5,53.6z M149,53.6L149,53.6c0-1.7-1.2-3-2.9-3c-1.7,0-2.8,1.3-2.8,3v0c0,1.7,1.2,3,2.9,3
															C147.9,56.6,149,55.3,149,53.6z"></path>
			<path class="y4p" d="M151.6,50h0.8l2.6,4l2.6-4h0.8v7.3h-0.8v-5.9l-2.6,3.9h0l-2.6-3.9v5.9h-0.8V50z"></path>
			<path class="y4p" d="M160.6,50h2.7c1.6,0,2.7,0.9,2.7,2.3v0c0,1.6-1.3,2.4-2.9,2.4h-1.8v2.6h-0.8V50z M163.3,53.9
															c1.2,0,2-0.6,2-1.6v0c0-1-0.8-1.6-2-1.6h-1.8v3.2H163.3z"></path>
			<path class="y4p" d="M169.5,49.9h0.8l3.3,7.3h-0.9l-0.9-1.9h-4l-0.9,1.9h-0.8L169.5,49.9z M171.6,54.6l-1.7-3.7l-1.7,3.7H171.6z"></path>
			<path class="y4p" d="M175.1,50h0.8l4.6,5.8V50h0.8v7.3h-0.7l-4.7-6v6h-0.8V50z"></path>
			<path class="y4p" d="M185.5,54.4l-3-4.4h1l2.5,3.6l2.5-3.6h1l-3,4.4v2.9h-0.8V54.4z"></path>
		</g>
	</g>
</svg>