<svg xmlns="http://www.w3.org/2000/svg" id="sanofi" viewBox="0 0 107.72 22.97"><defs><style>.ad1,.ad2{fill:#495ea0;}.ad2,.ad4{fill-rule:evenodd;}.ad3{fill:#d1ab77;}.ad4{fill:#adbc11;}</style></defs><g id="Capa_2" data-name="Capa 2"><g id="Capa_1-2" data-name="Capa 1"><rect class="ad1" x="74.95" y="4" width="2.18" height="14.96"/><path class="ad2" d="M51.11,5.9a5.47,5.47,0,0,0-5.34,5.64,5.41,5.41,0,1,0,10.82,0A5.42,5.42,0,0,0,51.11,5.9m.08-2a7.62,7.62,0,1,1-7.62,7.65,7.57,7.57,0,0,1,7.62-7.65"/><path class="ad2" d="M5.12,5.69a2.2,2.2,0,0,0-2.4,2.37,1.85,1.85,0,0,0,1,1.38,4.71,4.71,0,0,0,.93.4l1.48.51a9,9,0,0,1,2.64,1.26A3.82,3.82,0,0,1,10,14.47a4.73,4.73,0,0,1-4.95,4.71,4.81,4.81,0,0,1-5-4.6H2.11a2.82,2.82,0,0,0,2.94,2.7,2.6,2.6,0,0,0,2.79-2.49,2.14,2.14,0,0,0-1.21-2,6,6,0,0,0-.86-.35l-1.18-.39a12.22,12.22,0,0,1-2.25-.9,3.5,3.5,0,0,1-1.76-3A4.35,4.35,0,0,1,5.22,3.79,4.47,4.47,0,0,1,9.69,7.86H7.55A2.39,2.39,0,0,0,5.12,5.69"/><path class="ad2" d="M63.91,4H71V6H64.64v4.86H71v2H64.64V19H62.46V5.46A1.46,1.46,0,0,1,63.91,4"/><path class="ad2" d="M30.55,7.49l0,11.48H28.35V5.39a1.52,1.52,0,0,1,1.52-1.52,1.43,1.43,0,0,1,1.29.72c2.17,3.52,6.16,10.16,6.6,10.89V4H40V17.58a1.51,1.51,0,0,1-1.51,1.52,1.43,1.43,0,0,1-1.29-.72C35,14.87,31,8.22,30.55,7.49"/><path class="ad2" d="M18.52,6.75,16.31,12.8h4.42L18.52,6.75m-2.93,8L14,19H11.76L17.14,4.81a1.48,1.48,0,0,1,2.76,0L25.27,19H23l-1.55-4.22Z"/><path class="ad3" d="M107.19,8c-3.7-5.45-7.85-.67-12-1.26S90.9.51,96,0l.37,0a11.48,11.48,0,0,1,10.83,8"/><path class="ad2" d="M107.29,8.33a11.49,11.49,0,0,1-18.38,12,7.05,7.05,0,0,0,2.5.44c10.41.06,6-13.78,15.88-12.44"/><path class="ad4" d="M92,19.38c-1.44.88-3.72.61-5.31-1.56a9.85,9.85,0,0,1-.89-1.46,11.37,11.37,0,0,1-1.09-4.88,12.3,12.3,0,0,1,.08-1.37c2.51,3.38,5.39,3.27,7.23,4.37a2.88,2.88,0,0,1,1.35,2.44A2.91,2.91,0,0,1,92,19.38"/></g></g></svg>