<svg version="1.1" id="sanofi" xmlns="http://www.w3.org/2000/svg" xmlns:xlink="http://www.w3.org/1999/xlink" x="0px"
	 y="0px" viewBox="0 0 570.6 147.6" style="enable-background:new 0 0 570.6 147.6;" xml:space="preserve">
<style type="text/css">
	.ax0{fill:#773E91;}
</style>
<path d="M203.4,48.1c-13.6-5.2-26.4-7.6-40.6-7.6c-31.1,0-53,20.8-53,53.6c0,33.2,19,53.6,52.5,53.6c13.6,0,26.8-2.3,41-8.2
	c3.3-1.4,5.2-3.7,5.2-8.2V56.3C208.5,51.6,206.7,49.3,203.4,48.1z M181.7,115.4c0,3.1-1.6,4.5-5.2,5.6c-4.5,1.2-8.4,1.9-14,1.9
	c-13.2,0-25.5-7.8-25.5-28.8c0-21,12.4-28.8,25.5-28.8c5.6,0,9.5,0.6,14,1.9c3.5,1,5.2,2.5,5.2,5.6V115.4z"/>
<path d="M96.2,129.6c0,3.5-0.4,8.2-1.6,11.7c-1,3.1-2.3,4.1-5.4,4.1H70.7c-2.1,0-3.1-1.2-3.1-2.9c0-0.4,0.1-0.8,0.2-1.2
	c0.8-2.7,1.2-4.5,1.2-7.6c0-30.3-66.3-13.4-66.3-57.1c0-22.3,17.7-37.1,45.3-37.1c14.6,0,29.9,3.5,42.7,10.9
	c1.6,0.9,2.5,2.5,2.5,4.1c0,1-0.2,2.2-0.8,3.5l-6.4,13.6c-0.9,1.7-2.7,2.9-4.5,2.9c-1,0-2.1-0.2-3.1-0.8
	c-10.5-5.8-20.6-9.3-31.1-9.3c-10.9,0-17.3,4-17.3,10.3C29.9,94.1,96.2,82.9,96.2,129.6z"/>
<path d="M280.2,40.4c-12.2,0-26.4,2.1-41.4,7.4c-2.9,1-5.2,3.5-5.2,8.2v85.3c0,2.5,1.6,4.1,4.1,4.1h18.5c2.5,0,4.1-1.6,4.1-4.1V72.2
	c0-3.1,1.6-4.5,4.9-5.4c5.4-1.2,8.9-1.6,15.2-1.6c11.1,0,20,5.2,20,17.5v58.7c0,2.5,1.6,4.1,4.1,4.1h18.5c2.5,0,4.1-1.6,4.1-4.1
	V79.2C327.4,54,312,40.4,280.2,40.4z"/>
<path d="M398.3,40.4c-30.9,0-51.1,22.5-51.1,53.6c0,31.1,20.2,53.6,52.5,53.6c30.9,0,51.1-22.5,51.1-53.6
	C450.8,62.9,430.6,40.4,398.3,40.4z M399.7,122.8c-15.2,0-25.3-9.9-25.3-28.8c0-19,10.1-28.8,23.9-28.8c15.2,0,25.3,9.9,25.3,28.8
	C423.6,113,413.5,122.8,399.7,122.8z"/>
<path d="M565.6,42.5h-18.5c-2.5,0-4.1,1.6-4.1,4.1v94.8c0,2.5,1.6,4.1,4.1,4.1h18.5c2.5,0,4.1-1.6,4.1-4.1V46.6
	C569.7,44.1,568.1,42.5,565.6,42.5z"/>
<path d="M526,2.7c-4.1-1-8.6-1.4-13-1.4c-25.5,0-42.2,13.6-42.2,43.3v96.8c0,2.5,1.6,4.1,4.1,4.1h18.3c2.5,0,4.1-1.6,4.1-4.1V65.2
	h26.2c2.7,0,4.1-1.6,4.1-4.1V46.8c0-2.7-1.4-4.3-4.1-4.3h-26.2v-2.3c0-11.3,4.9-17.1,16.3-17.1c4.1,0,8.6,1,10.1,1
	c2.5,0,3.5-1.4,3.9-3.9l2.1-10.7c0.2-0.9,0.4-1.8,0.4-2.7C530.2,4.6,528.9,3.3,526,2.7z"/>
<path class="ax0" d="M15.2,119.1c-8.4,0-14,5.4-14,14.2c0,8.7,5.6,14.2,14.6,14.2c8.4,0,14-5.6,14-14.2
	C29.8,124.5,24.2,119.1,15.2,119.1z"/>
<path class="ax0" d="M556,1.3c-8.4,0-14,5.4-14,14.2c0,8.7,5.6,14.2,14.6,14.2c8.4,0,14-5.6,14-14.2C570.6,6.7,565.1,1.3,556,1.3z"
	/>
</svg>
