<svg xmlns="http://www.w3.org/2000/svg" id="sea" viewBox="0 0 99.99 45.21"><defs><style>.wy1{fill:#545153;}.da2{fill:#d62619;}</style></defs><g id="Capa_2" data-name="Capa 2"><g id="Capa_1-2" data-name="Capa 1"><path class="wy1" d="M49.45,27.16h.34v1.63h-.43c-.14-.7-.51-1.21-1.21-1.21-.55,0-.77.16-.77.58,0,1,2.62.25,2.62,2.06,0,1-.73,1.36-1.55,1.36a2,2,0,0,1-1.23-.51l-.13.38h-.4V29.7h.44A1.3,1.3,0,0,0,48.53,31c.52,0,.77-.27.77-.58,0-1.1-2.63-.27-2.63-2.12A1.32,1.32,0,0,1,48.13,27a1.84,1.84,0,0,1,1.12.46Z"/><path class="wy1" d="M51.73,28.33a1.46,1.46,0,0,1,1.52,1.61,1.52,1.52,0,1,1-3,0,1.46,1.46,0,0,1,1.51-1.61m0,2.79c.48,0,.73-.41.73-1.18s-.25-1.19-.73-1.19-.72.41-.72,1.19.25,1.18.72,1.18"/><path class="wy1" d="M56.14,30.21c0,.87-.47,1.34-1.27,1.34s-1.38-.58-1.38-1.62a1.51,1.51,0,0,1,1.45-1.6c.69,0,1.22.4,1.22,1a.49.49,0,0,1-.43.53.42.42,0,0,1-.46-.38c0-.26.11-.4.35-.42a.63.63,0,0,0-.56-.26c-.61,0-.78.64-.78,1.13S54.43,31,55,31c.35,0,.6-.33.64-.79Z"/><path class="wy1" d="M56.47,31.45V31h.27c.16,0,.23-.07.23-.25V29.11c0-.19-.07-.26-.23-.26h-.27v-.43h1.2v2.35c0,.18.07.25.23.25h.29v.43Zm.77-4.36a.44.44,0,0,1,.43.46.43.43,0,1,1-.85,0,.44.44,0,0,1,.42-.46"/><path class="wy1" d="M59.2,30c0,.5.12,1,.67,1s.64-.24.71-.68h.49a1.16,1.16,0,0,1-1.26,1.17c-.92,0-1.4-.57-1.4-1.61a1.37,1.37,0,1,1,2.67.08Zm1.1-.43c0-.41-.12-.81-.53-.81s-.55.4-.57.81Z"/><path class="wy1" d="M63.5,30.92h0a1,1,0,0,1-.93.63c-.82,0-1.17-.82-1.17-1.61s.44-1.61,1.17-1.61a1.1,1.1,0,0,1,.93.55h0v-1c0-.19-.06-.28-.24-.28h-.38v-.42h1.31v3.57c0,.19.06.28.24.28h.31v.43H63.5Zm-.71.12c.4,0,.71-.36.71-1.14s-.31-1.07-.71-1.07-.6.36-.6,1.11.21,1.1.6,1.1"/><path class="wy1" d="M68.09,30.33v.19c0,.72-.26,1-.76,1a.54.54,0,0,1-.59-.48,1.08,1.08,0,0,1-1,.48.75.75,0,0,1-.82-.82c0-1.26,1.77-.65,1.77-1.56,0-.42-.32-.49-.63-.49a.71.71,0,0,0-.55.21.31.31,0,0,1,.39.34c0,.29-.18.38-.41.38a.45.45,0,0,1-.43-.48c0-.66.72-.8,1.19-.8.79,0,1.14.39,1.14.93v1.59c0,.14,0,.21.13.21s.17-.09.17-.49v-.24Zm-1.37-.48-.62.31a.51.51,0,0,0-.36.49c0,.28.11.41.36.41.4,0,.62-.37.62-.79Z"/><path class="wy1" d="M70.37,30.92h0a1,1,0,0,1-.93.63c-.81,0-1.16-.82-1.16-1.61s.43-1.61,1.16-1.61a1.1,1.1,0,0,1,.93.55h0v-1c0-.19-.06-.28-.24-.28h-.37v-.42h1.3v3.57c0,.19.06.28.24.28h.31v.43H70.37Zm-.71.12c.4,0,.71-.36.71-1.14s-.31-1.07-.71-1.07-.6.36-.6,1.11.21,1.1.6,1.1"/><path class="wy1" d="M73.6,31.45V31h.32c.2,0,.32-.06.32-.45V28c0-.27-.08-.36-.38-.36H73.6v-.48h3.88v1.71h-.43c-.09-.88-.16-1.23-1-1.23h-1V29h.31c.36,0,.52-.2.52-.72v-.09h.43v2.16h-.43v-.15c0-.53-.16-.72-.52-.72h-.31V31h1.18c.54,0,.75-.37.81-1.33h.43v1.81Z"/><path class="wy1" d="M78.38,30.27a1,1,0,0,0,1,.84.42.42,0,0,0,.45-.39c0-.63-1.85-.27-1.85-1.42a1,1,0,0,1,1.08-1,1.45,1.45,0,0,1,.86.32l.12-.23h.33V29.5H80a.85.85,0,0,0-.87-.71c-.19,0-.44.09-.44.35,0,.51,1.85.27,1.85,1.45a1,1,0,0,1-1.08,1,1.38,1.38,0,0,1-1-.33l-.12.23H78V30.27Z"/><path class="wy1" d="M81.84,29h0a1,1,0,0,1,.92-.63c.82,0,1.17.81,1.17,1.61s-.35,1.61-1.17,1.61a1.06,1.06,0,0,1-.91-.56h0v1.12c0,.19.05.28.23.28h.38v.43H80.59v-.43h.32c.19,0,.24-.09.24-.28v-3c0-.2-.05-.29-.24-.29h-.3v-.43h1.23Zm0,1c0,.74.3,1.1.69,1.1s.61-.38.61-1.1-.29-1.11-.61-1.11-.69.36-.69,1.11"/><path class="wy1" d="M87.55,30.33v.19c0,.72-.27,1-.76,1a.54.54,0,0,1-.59-.48,1.08,1.08,0,0,1-1,.48.75.75,0,0,1-.82-.82c0-1.26,1.77-.65,1.77-1.56,0-.42-.32-.49-.63-.49a.71.71,0,0,0-.55.21.31.31,0,0,1,.39.34c0,.29-.19.38-.41.38a.45.45,0,0,1-.43-.48c0-.66.72-.8,1.19-.8.79,0,1.13.39,1.13.93v1.59c0,.14.06.21.15.21s.15-.09.15-.49v-.24Zm-1.37-.48-.63.31a.51.51,0,0,0-.35.49c0,.28.11.41.35.41.4,0,.63-.37.63-.79Z"/><path class="wy1" d="M88.93,29h0a1.18,1.18,0,0,1,1-.66c.52,0,.84.34.84,1v1.39c0,.19.07.26.35.26h.22v.43H89.65V31h.14c.25,0,.31-.07.31-.26V29.42c0-.49-.23-.59-.51-.59a.77.77,0,0,0-.66.75v1.18c0,.19.07.26.23.26h.23v.43H87.66V31H88c.16,0,.23-.07.23-.26V29.2c0-.28-.07-.35-.37-.35h-.2v-.43h1.27ZM90.48,27c-.08.38-.27.81-.69.81a1.09,1.09,0,0,1-.51-.16,1.19,1.19,0,0,0-.45-.15c-.14,0-.23.18-.26.3h-.24c0-.41.28-.8.7-.8a1.2,1.2,0,0,1,.49.15,1.29,1.29,0,0,0,.38.16c.2,0,.26-.14.33-.31Z"/><path class="wy1" d="M93.11,28.33a1.46,1.46,0,0,1,1.52,1.61,1.52,1.52,0,1,1-3,0,1.46,1.46,0,0,1,1.51-1.61m0,2.79c.48,0,.73-.41.73-1.18s-.25-1.19-.73-1.19-.72.41-.72,1.19.25,1.18.72,1.18"/><path class="wy1" d="M94.89,31.45V31h.29c.16,0,.23-.07.23-.26V27.85c0-.19-.07-.26-.23-.26h-.29v-.43h1.22v3.6c0,.19.07.26.23.26h.28v.43Z"/><path class="wy1" d="M100,30.33v.19c0,.72-.27,1-.76,1a.55.55,0,0,1-.6-.48,1.06,1.06,0,0,1-1,.48.75.75,0,0,1-.82-.82c0-1.26,1.76-.65,1.76-1.56,0-.42-.31-.49-.63-.49a.69.69,0,0,0-.54.21.31.31,0,0,1,.38.34c0,.29-.18.38-.41.38a.44.44,0,0,1-.42-.48c0-.66.72-.8,1.18-.8.8,0,1.14.39,1.14.93v1.59c0,.14,0,.21.14.21s.16-.09.16-.49v-.24Zm-1.38-.48-.62.31a.51.51,0,0,0-.35.49c0,.28.11.41.35.41.4,0,.62-.37.62-.79Z"/><path class="wy1" d="M48.36,37.34h0a1,1,0,0,1-.93.63c-.82,0-1.17-.82-1.17-1.61s.43-1.61,1.17-1.61a1.1,1.1,0,0,1,.93.55h0v-1c0-.19-.06-.28-.24-.28h-.37v-.43h1.3v3.58c0,.19.06.28.24.28h.31v.43H48.36Zm-.71.12c.4,0,.71-.36.71-1.14s-.31-1.07-.71-1.07-.61.36-.61,1.11.22,1.1.61,1.1"/><path class="wy1" d="M50.6,36.43c0,.51.12,1,.67,1s.64-.24.72-.68h.48A1.16,1.16,0,0,1,51.21,38c-.92,0-1.4-.57-1.4-1.61a1.36,1.36,0,1,1,2.67.07ZM51.7,36c0-.41-.12-.81-.53-.81s-.55.4-.57.81Z"/><path class="wy1" d="M54.53,37.87v-.48c.31,0,.51,0,.62-.35l1.12-3.46h.82L58.28,37c.1.31.3.35.61.35v.48h-2v-.48h.47c.13,0,.18,0,.18-.1a.68.68,0,0,0,0-.15l-.2-.65H55.94l-.2.65a.51.51,0,0,0,0,.13c0,.09.07.12.19.12h.46v.48ZM57.1,36l-.51-1.56h0L56.11,36Z"/><path class="wy1" d="M60.37,35.34h0c.23-.39.41-.6.73-.6a.69.69,0,0,1,.72.72.48.48,0,0,1-.45.54.4.4,0,0,1-.42-.41.38.38,0,0,1,.39-.39.3.3,0,0,0-.25-.09c-.48,0-.73.53-.73,1v1.08c0,.18.07.25.24.25H61v.43H59.13v-.43h.32c.16,0,.24-.07.24-.25V35.53c0-.19-.08-.26-.24-.26h-.32v-.43h1.24Z"/><path class="wy1" d="M62.06,35.27v-.41c.6,0,.76-.62.81-1.22h.37v1.2H64v.43h-.76v1.91c0,.13.07.21.23.21s.25-.11.25-.37v-.57h.39V37c0,.68-.34,1-.81,1a.66.66,0,0,1-.75-.72v-2Z"/><path class="wy1" d="M65.16,36.43c0,.51.12,1,.67,1s.63-.24.71-.68H67A1.17,1.17,0,0,1,65.76,38c-.91,0-1.39-.57-1.39-1.61a1.36,1.36,0,1,1,2.67.07ZM66.25,36c0-.41-.11-.81-.53-.81s-.55.4-.56.81Z"/><path class="wy1" d="M68.55,35.34h0c.24-.39.42-.6.74-.6a.68.68,0,0,1,.71.72c0,.29-.15.54-.44.54a.4.4,0,0,1-.42-.41.38.38,0,0,1,.39-.39.3.3,0,0,0-.25-.09c-.48,0-.73.53-.73,1v1.08c0,.18.07.25.23.25h.37v.43H67.3v-.43h.33c.16,0,.23-.07.23-.25V35.53c0-.19-.07-.26-.23-.26H67.3v-.43h1.25Z"/><path class="wy1" d="M70.27,37.87v-.43h.27c.17,0,.24-.07.24-.26V35.53c0-.19-.07-.26-.24-.26h-.27v-.43h1.2v2.34c0,.19.07.26.24.26H72v.43Zm.78-4.36a.44.44,0,0,1,.42.46.45.45,0,0,1-.42.47.46.46,0,0,1-.43-.47.45.45,0,0,1,.43-.46"/><path class="wy1" d="M73.72,34.75a1.61,1.61,0,1,1-1.52,1.61,1.46,1.46,0,0,1,1.52-1.61m0,2.79c.47,0,.72-.41.72-1.18s-.25-1.19-.72-1.19-.73.41-.73,1.19.25,1.18.73,1.18"/><path class="wy1" d="M75.93,36.69a1,1,0,0,0,1,.84.42.42,0,0,0,.46-.39c0-.63-1.86-.26-1.86-1.42a1,1,0,0,1,1.08-1,1.5,1.5,0,0,1,.87.32l.11-.23h.33v1.08h-.39a.85.85,0,0,0-.87-.71c-.19,0-.44.09-.44.35,0,.51,1.85.27,1.85,1.45A1,1,0,0,1,77,38a1.38,1.38,0,0,1-1-.33l-.12.23H75.5V36.69Z"/><path class="wy1" d="M81,36.63c-.06.87-.47,1.34-1.27,1.34s-1.38-.58-1.38-1.62a1.51,1.51,0,0,1,1.45-1.6,1.1,1.1,0,0,1,1.22,1,.48.48,0,0,1-.43.53.42.42,0,0,1-.46-.38c0-.26.11-.4.35-.42a.63.63,0,0,0-.56-.25c-.61,0-.78.63-.78,1.12s.14,1.12.76,1.12c.35,0,.6-.33.64-.79Z"/><path class="wy1" d="M81.31,37.87v-.43h.29c.16,0,.23-.07.23-.26V34.27c0-.19-.07-.26-.23-.26h-.29v-.43h1.22v3.6c0,.19.07.26.23.26H83v.43Z"/><path class="wy1" d="M84.06,36.43c0,.51.12,1,.67,1s.64-.24.71-.68h.49A1.16,1.16,0,0,1,84.67,38c-.92,0-1.4-.57-1.4-1.61a1.36,1.36,0,1,1,2.67.07ZM85.15,36c0-.41-.11-.81-.53-.81s-.54.4-.56.81Z"/><path class="wy1" d="M87.46,35.34h0c.23-.39.41-.6.73-.6a.69.69,0,0,1,.72.72.48.48,0,0,1-.45.54.4.4,0,0,1-.42-.41.38.38,0,0,1,.39-.39.3.3,0,0,0-.25-.09c-.48,0-.73.53-.73,1v1.08c0,.18.07.25.24.25h.37v.43H86.21v-.43h.32c.17,0,.24-.07.24-.25V35.53c0-.19-.07-.26-.24-.26h-.32v-.43h1.25Z"/><path class="wy1" d="M90.66,34.75a1.61,1.61,0,1,1-1.51,1.61,1.46,1.46,0,0,1,1.51-1.61m0,2.79c.48,0,.72-.41.72-1.18s-.24-1.19-.72-1.19-.73.41-.73,1.19.25,1.18.73,1.18"/><path class="wy1" d="M92.94,36.69a1,1,0,0,0,1,.84.42.42,0,0,0,.46-.39c0-.63-1.86-.26-1.86-1.42a1,1,0,0,1,1.08-1,1.5,1.5,0,0,1,.87.32l.11-.23h.33v1.08h-.39a.85.85,0,0,0-.87-.71c-.19,0-.44.09-.44.35,0,.51,1.85.27,1.85,1.45A1,1,0,0,1,94,38a1.38,1.38,0,0,1-1-.33l-.12.23h-.39V36.69Z"/><path class="wy1" d="M95.39,37.87v-.43h.27c.17,0,.24-.07.24-.26V35.53c0-.19-.07-.26-.24-.26h-.27v-.43H96.6v2.34c0,.19.07.26.23.26h.29v.43Zm.78-4.36a.45.45,0,0,1,.43.46.43.43,0,1,1-.86,0,.45.45,0,0,1,.43-.46"/><path class="wy1" d="M97.85,36.69a1,1,0,0,0,1,.84.42.42,0,0,0,.46-.39c0-.63-1.85-.26-1.85-1.42a1,1,0,0,1,1.07-1,1.45,1.45,0,0,1,.87.32l.12-.23h.32v1.08h-.38a.85.85,0,0,0-.87-.71c-.2,0-.45.09-.45.35,0,.51,1.86.27,1.86,1.45a1,1,0,0,1-1.08,1,1.39,1.39,0,0,1-1-.33l-.11.23h-.39V36.69Z"/><path class="wy1" d="M48.44,17.71a6.1,6.1,0,0,0,6,5.58c2,0,3.37-1.07,3.37-2.78,0-4.58-10.89-1.06-10.89-8.36,0-3.55,2.95-4.9,5.78-4.9a7.33,7.33,0,0,1,5,2l.58-1.67h1.46v6.55H58.27a5.67,5.67,0,0,0-5.48-5.23c-1.43,0-3.08.53-3.08,2.84,0,4.24,10.89,1.07,10.89,8,0,3.74-3.05,5.16-6,5.16a7.57,7.57,0,0,1-5.51-2.2l-.62,1.85H46.76v-6.9Z"/><path class="wy1" d="M63.25,16.32c0,3.63.72,7,4.54,7,2.6,0,4.18-1.49,4.86-4.27h1.88C73.82,22.86,71.59,25,67.76,25c-4.8,0-7.59-3-7.59-8.86S63,7.25,67.76,7.25c5.22,0,6.9,4,7.2,9.07Zm8.62-1.68c0-3.09-1.26-5.72-4.21-5.72s-4.41,2.63-4.41,5.72Z"/><path class="da2" d="M86.77,21.4c0,1.07.26,1.89.84,1.89,1.39,0,1.52-2,1.52-3v-1.5h1.53v1C90.66,23.58,89.49,25,87,25c-1.62,0-2.6-1.06-2.86-2.77A7,7,0,0,1,78.43,25c-2.62,0-4.76-1.28-4.76-4.45,0-4.62,5.83-4.55,9.11-6.26A2.15,2.15,0,0,0,84,12c0-2-.81-3.06-3.63-3.06a4.69,4.69,0,0,0-3.79,1.39,1.63,1.63,0,0,1,1.49,1.81,1.8,1.8,0,0,1-2,1.88c-1.13,0-1.68-1.1-1.68-2.52,0-3,3.7-4.23,6.16-4.23,3.73,0,6.16,1.21,6.16,5.83Zm-2.76-6a41.54,41.54,0,0,1-4.8,2.14c-1.75.82-2.46,1.6-2.46,2.85,0,1.85.91,2.95,2.56,2.95A5.1,5.1,0,0,0,84,18.63Z"/><path class="da2" d="M38.24,22.78a5.68,5.68,0,0,1,1-.55c.07-.15.07-.15-.06-.07-.37.14-.79.56-1.32.55-.3,0-.64-.24-1-.28-.83-.07-1.66.23-2.13-.27.28-.4.93-.47,1.25-.62a12.21,12.21,0,0,1,2.63-.21c.3,0,.16-.12-.06-.06h-.5c-.33,0-.68,0-.88-.14a3.76,3.76,0,0,1,.44-.55c-.07.06.25-.32.13-.2-.71.85-2.31,1.09-3.57,1.5-.38-.05-.7-.43-1-.61s-.85-.26-1-.69c.74-.75,1.19-1.81,1.94-2.54,1.16.87,3.17-.09,4.39.55.51.51,1.11,1.17,1.32,1.38a3.24,3.24,0,0,0,1.23.69,4.53,4.53,0,0,1-1.1-.77,14.76,14.76,0,0,1-1.45-1.72l1.45-1.65c.47-.31.56-.27.05-.27,0-.37-.05-.78-.12-1.11s-.37-.93-.13.08-.31,1.46-.88,2.06-.5.82-1.56.76c-1.26-.08-2.6.19-3-.62.65-1.24,1.17-2.61,1.76-3.92a5,5,0,0,1,2.69-1.3c.16-.37-1.49.4-2.44.68a4.36,4.36,0,0,1,1.11-2.19c.12-.07.08-.2-.08-.07a18.85,18.85,0,0,0-2,3.5,8.42,8.42,0,0,0-.38-3.3c.49-.32.61-.92,1.44-1,.52-.11.64-.53.5-.48s0,.31-1,.34c-.17-.11-.23-1.65.19-1.72.13-.08-.13-.1-.32.25-.28.89.16,1.73-.79,2.32a.27.27,0,0,1-.21,0,3.54,3.54,0,0,1-1.32-2.9l.07-.47c0-.12-.07-.17-.06,0C33,9.65,34.94,10.27,35,12.06c-.88-.86-2.46-2.18-2.69-2.07.55.91,2.51,1.51,2.76,2.62a6.27,6.27,0,0,1-.19,2.68c-1,2.6-3,5.49-5.64,6.11-.05-.55-.28-.92-.31-1.51.13-.32.8-.4.75-.68a1.13,1.13,0,0,1-.87.34c-.33-1.77,1.57-3.4,2-3.62s1.07-.28,1.28-.44c.67-.48-.37.08-.75.14a2.87,2.87,0,0,0-1.63,1c-.74.75-.73,1.08-1.31,1.58-.18-.26-.31-1.18-.69-1.17.75,1.13.81,3,1.07,4.68A4.86,4.86,0,0,0,26.53,24c-.08-1.75-1.21-2.82-1.25-4.32-.05-1.66,1.71-3,1.62-5.16a4.52,4.52,0,0,0,2.38-1.72,2.91,2.91,0,0,0,3.32.9c.82-.35-1,.26-1.44.07.2-.25.54-.42.69-.62s.79-.78.54-.74c-.39.32-1.18,1.79-2,.94.18-.07.57-.32.37-.55-.1.68-1.16.16-1.25-.41,0-.2.16-1.09.25-1.85.24-1,.35-1.92.38-2.07.2-1.25,1.49-1.61,1.81-2.47a9.1,9.1,0,0,1-1.31,1.1c-.61.49-.71,1.56-1,2.4-.32-1-1.32-1.81-1.38-3.16a3.16,3.16,0,0,1,.56-2.19c.24-.21.46-.15.71-.32a1.4,1.4,0,0,0,.29-.24,8,8,0,0,0,.57-.68c-.06.05-.15.06-.25.2A2.3,2.3,0,0,1,28.78,4c-.06-.48.27-.9.07-1.31v.42c-.18,1-.92,2.33-.76,3.7.14,1.21,1.26,2,1.38,3.3a3.36,3.36,0,0,1-2.68,3.85c.07-2.21-1-3.89-.89-5.91.05-.89.72-1.55,0-2.4-.19-.31-.31-.5-.44-.48A1.82,1.82,0,0,1,26,6.83a6.12,6.12,0,0,0-.32,2.34c-.48-.57-1.91-2.84-1.81-4.34,0-.18,1.91-1.53,1.76-1.81A3.78,3.78,0,0,1,25,3.7a2.67,2.67,0,0,1-1.11.64,3.48,3.48,0,0,1,.61-2.72,1.4,1.4,0,0,0,.34-.76c-.14.49-.68.86-1,1.7a6.24,6.24,0,0,0-.27,2.2,8.4,8.4,0,0,0,1.82,4.49s1,1.36,1,5.52c0,1.71-1.15,2.42-1.56,4.09-.61-.78-.6-2.31-.69-3.57s-.93-2.57-.88-3.16.42-.46.68-.7c.07-.07.15-.27.2-.33.2-.22.39-.32.5-.55-.18.3-.61.46-.84.74s-.53.24-.73.49a5.25,5.25,0,0,1-.35-2.87,2.88,2.88,0,0,0-.4-1.52,5.08,5.08,0,0,1,.13,3A3.46,3.46,0,0,1,22,8.76c.15,1.94,1.37,3.66,1.69,5.43-.57-1.44-2.74-1.62-2.88-2.54-.15-.08-.05.63.69,1,3.41,1,1.89,5.57,3.44,7.69-.74-.54-1.51-1.41-2.13-1.85.31.29.61.76.88,1,2,1.47,2.56,4.59,2.56,8A14.31,14.31,0,0,1,26.15,29c-.26,2.15-2.29,3.78-3.44,5.36a10.79,10.79,0,0,0-2.38,6.12,18.38,18.38,0,0,0,.2,3.72A19.14,19.14,0,0,0,19,38.86a10.5,10.5,0,0,1-1-1.92c-.21-1.35.72-2.2,1.19-3,.33-.52.56-1.12.88-1.72.6-1.13,1.69-2.44,2.63-2.54.49,0,.79.39,1.12.14-.18,0-.67-.08-.75-.42.67-.39,1.26-1.23,2-1.3.42-.18-.65.07-.65-.23.19-.57.74-1.12.84-1.56-.12.12-1.83,2.65-3,3,.57-.67.51-1.74.82-2.61a3.92,3.92,0,0,1,.68-1c.23-.31.62-.62.51-1a10.83,10.83,0,0,0-1.63,2.54c-.5-.26-.07-2.6-.32-1.57s.58,3.09-.81,3.57a12.56,12.56,0,0,1-.65-3.63c0-.14,0-.72,0-.86-.09-.46-.22-.54-.23-.74-.08-2,2.61-.93,3.13-2.4a3.16,3.16,0,0,1-2.44.76c.07-.15.28-1,.13-.69-.24.84-.95,1.06-1.19,2-.37-.41-.91-.6-.94-1.17a4.29,4.29,0,0,1,1.38-2.13c.22-.06.28.06.5,0s.88-.31.94-.48c-.15,0-.06,0-.38.14a1.65,1.65,0,0,1-1,.2,2.17,2.17,0,0,1,.57-2.07c.31-.31.81-.67.62-1.09a3.41,3.41,0,0,1-1.07,1.44c-.47.47-.26,1.75-.94,2.48s-.53,1-.87,1.24c-.66-1.72.27-2.5.61-3.74,0,.13.09-.36,0-.52-.2,1.11-.91,1.8-1,3-.21,2.62,2.38,2.69,1.82,4.88-1.26-.89-.54-1.1-1.87-2-.28-.28-.79-1.81-.93-1.94s.14.46.26.86.23,1.23.88,1.53,1.93,3.21,2.22,5.66c-.46.37-.88.81-1.31,1.23-.27-.79-1.1-2-1.11-2.81,0-.49.62-.93.67-1s.18-.62,0-.61a1.09,1.09,0,0,1-.88,1c-.21-.56-.27-1.26-.44-1.59s-.53-.87-.81-.89c.39.36,1,1.37.75,1.65-.92.18-1-.65-1.31-.76.17.23.18.55.43.76s.94.34,1.07.76a3.86,3.86,0,0,1,0,.68c.1,1,.79,1.91.88,2.75a2.81,2.81,0,0,1-1.13,2.61,8.1,8.1,0,0,1-1.25,1.24c-1.31-1.81-1.61-3.73-2-6.25a11.91,11.91,0,0,1-.44-3c.33-3.12,3.22-5,3.45-8.45.05-.81,0-1.69,0-2.27.05-3,1.87-3.66,2.63-5.5.16-.39.14-.82.31-1.37.29-.91,1.25-1.73.94-3.21a3,3,0,0,1,0-.42A2,2,0,0,1,21.6,4,4.38,4.38,0,0,1,22,2.78a3.34,3.34,0,0,0-.58,2,3.26,3.26,0,0,1-.8,2.72c.1-1.44-.52-2.75-.12-4,.23-.74,1.43-1.69,1.8-2.49A3.11,3.11,0,0,0,22.48.2c-.05,0-.08.31-.27.77a7.92,7.92,0,0,1-1.53,1.81C21,1.72,22,1.2,21.56,0a1.6,1.6,0,0,1-.64,1.7,5,5,0,0,1-.44-.9,2.07,2.07,0,0,1-.13-.68c-.13,0-.07.38.09.83a2.35,2.35,0,0,1,.31,1.21,12.64,12.64,0,0,0-.5,2,24,24,0,0,0,.12,3c.17,3-2,3.75-2.88,5.64a4.13,4.13,0,0,1-.89-1.94c0-.2.21-1.34.1-1.3a7.15,7.15,0,0,0-.28,1.31c.08,1,.85,1.79.94,2.47A13,13,0,0,1,17.18,15c-.11,2,0,3.93-.94,4.68.12-2.63-1.38-3.49-2.32-5a11.79,11.79,0,0,0,.94-5.5,5.4,5.4,0,0,0,2-1.38A5.43,5.43,0,0,0,17.47,6c0-.2.48-.42.77-.85a6.89,6.89,0,0,0,.44-1c-.24.19-.27.56-.47.86s-.51.47-.72.72A6.26,6.26,0,0,1,17.91,2c.31-.81.18-1.06.15-1V1c0,.78-.71,1.63-.75,2.18-.05-.41-.43-.66-.91-1-.26-.18-.23-1-.54-1.16.33.6.1,1.1.75,1.48s.62,1.38.64,2.12a5.89,5.89,0,0,1-.35,2.88,5.36,5.36,0,0,1-2,1.38c-.31.08-.92-1.38-.73-1.81s.55-.78.7-1.25a2.57,2.57,0,0,0,.09-1.48,4.92,4.92,0,0,1-.19,1.44,4.85,4.85,0,0,1-.68,1.1c-.15-.92-.64-1.13-1-1.78,0,.52.45.6.64,1.19.11.32.12.77.24,1.21a13.75,13.75,0,0,1,.63,2.06,8.08,8.08,0,0,1-1.13,4.82c-1-.62-1.58-3.22-.75-4.47.21-.31.65-.34.69-.69a.72.72,0,0,1-.56.34c0-.44.22-.94.06-1.3-.09,1.43-.86,2.29-.88,4-1.12-2,.7-4.83-.31-7.08,1.14-.57.63-2.84,1.5-3.63,0-.27-.56.33-.75,1.37-.14.76-.09,1.92-.81,1.92-.49,0-.44-.88-1.32-1-.22-.05.47.23.58.43a5.29,5.29,0,0,1,.86,2.05c.16,1.68-.46,2.8-.5,4.12-.14,4.26,4,4.89,4.32,8.38.25,2.8-1.13,3.72-1.88,5.43-.34-1.48-2-2.46-1.25-4.19.6-.26,1.62-1.66,1.5-1.92,0,.23-.87,1.29-1.5,1.44-.3-2.21-1.5-3.45-2.44-5A2.39,2.39,0,0,0,10.48,13a2.29,2.29,0,0,1,.25-1c-.36.13-.36.6-.39,1s.07,1-.55,1.26c-.49-.56-1.45-2-1.45-2,.2-.29.05-1.14,0-1.48a5.44,5.44,0,0,1,.46-1.3,4.42,4.42,0,0,0-.55,1.2c0,.62.21.84-.06,1.45a1.76,1.76,0,0,1-.46-.29c-.14-.12-.19-.29-.26-.29.11.11.13.29.23.41s.32.22.4.32c.75,1,1.23,2,2.1,3.35s2,3.15,1.37,5.09a14,14,0,0,1-1.75-1.31A7.1,7.1,0,0,0,8.5,17a4.14,4.14,0,0,1-.34-2.5,3.38,3.38,0,0,0-.06,2.19c.23.73,1.21,1.29.94,2.21-1.34-.82-2.65-1.77-2.82-4C6,12.4,6,10.08,7.09,8.35l.16-.26a1,1,0,0,0,.85-.57s-.48.62-.82.41a11,11,0,0,0,.25-2.75C7.47,4.82,7.43,8,6.53,9a1.39,1.39,0,0,1-.36-.57,1.16,1.16,0,0,0-.62-.57,1.92,1.92,0,0,1,.56.64c.13.23.14.32.22.47a.39.39,0,0,1,.08.3A2.47,2.47,0,0,1,6,10.47a1.36,1.36,0,0,1-.8-.19c-.69-.37-.67-.75-.7-.65s.21.55.64.82.73.15.82.51a17.06,17.06,0,0,0-.16,2.09c-1-1.48-2.4-2.53-2.34-2.74-.26.47,2,1.77,2.25,3.74-2.07-.54-1.67-1.3-2.88-1.51-.58,0-.08.12-.08.12A3.09,3.09,0,0,1,4.4,13.85a5.06,5.06,0,0,0-1.11.83c-.26.25-.42-.17-.62,0,.25.09.4.3.67.14s.7-.68,1.19-.73a1.43,1.43,0,0,1,1.31.81,2.67,2.67,0,0,1,.07.44A6.4,6.4,0,0,0,7.3,18.24a3.79,3.79,0,0,1-4.77-1.18C3,18.07,4,18.8,4.59,18.72a13.13,13.13,0,0,1-3.77-.56,10.14,10.14,0,0,0,6.78.43c1,.84,2.32,1.34,3.15,2.42-3-.4-2.75.28-4,.4-.35,0-.63-.86-.93-.6.14-.12.67.48.56.61a3.34,3.34,0,0,1-2.06-.85,2.87,2.87,0,0,0,2.24,1c1.15-.09,2.46-.89,3.09-.3-.43.35-.44,1.12-.59,1.76-.22.9-1.16.54-1.21.66s1.08.18,1.28-.6c.35-1.62,1.1-2,2-1.64l.34.16a3.53,3.53,0,0,1,.82,1.06,12.37,12.37,0,0,1,1.19,3.92,18.28,18.28,0,0,1,.5,4.1,9.75,9.75,0,0,0-1.5-.27,13.55,13.55,0,0,0-1.13-2.18,1.58,1.58,0,0,1,.5-.7c-.3,0-.46.57-.69.42a5.73,5.73,0,0,1-.65-1.26,2.18,2.18,0,0,1,.12-1.34c-.21-.09-.38,1-.18,1.47a9,9,0,0,1,1.21,3.38c-1.69-.23-4-.4-4.5-2.1a5.18,5.18,0,0,1,.13-1.28,2.31,2.31,0,0,0,0-.5A4.28,4.28,0,0,0,7,25.18a2.75,2.75,0,0,1,.11,1,6.63,6.63,0,0,1-.56-.82c-.14-.21-.45-.74-.38-.48.36.7,1.3,1.84.61,2.83a11.08,11.08,0,0,0-4.38-4.51c-.25-.14-1.57-.89-1.82-1A1.1,1.1,0,0,1,0,21.8v.08a2.26,2.26,0,0,0,.51.46c1,.62,4,2.26,3.89,3a2.55,2.55,0,0,1-1.5.76c-.49,0-2-.21-2.07.06.45-.17.87,0,1.42,0,.16,0,.51,0,.42.22a2.09,2.09,0,0,0-.26.81,7.25,7.25,0,0,0,.3,1.24c0-.48-.27-.67-.12-1.38.42-.81,1.11-.94,2.08-1.41a.6.6,0,0,1,.19-.07,11,11,0,0,1,1.22,1.83,17.62,17.62,0,0,0,1.4,2.19c-.85-.06-1.54,1-2.34,1.2-.44.13-1.1-.24-1.49.18.32-.07,1-.22,1.13.13.23.69-1.39,1.09-1,1.07s.47-.14.59,0a.17.17,0,0,1,0,.13C4,34,4,34.46,4.09,34a.32.32,0,0,1,.14-.17c.23.33.31,1.35.73,1.24a2.67,2.67,0,0,1-.37-1.92c.18-1.35,1.47-3,2.59-3.11s1.22.12,2.12.39c1.57.45,4.87,1,5.12,1.81,1.23,4,4.24,6.65,4.51,11.49-.83-.92-3.2-2.09-3.22-2.65a18.12,18.12,0,0,1,.15-2.47c0-.8-.83-1.48-1.13-2.44a3,3,0,0,0,.57,1.58c.47.76.1,1.93,0,3-1-.85-2.58-1.62-3-2.87a2,2,0,0,1,.06-.59c0-.27.05-.74.05-.74.17-.31.16-.51.31-.8s.23-.52.09-.38a7,7,0,0,0-.37.73s-.06.14-.11,0c-.16-.9-.53-1.91-.55-1.65a8.1,8.1,0,0,1,.28,3.14c-.18-.1-1.41-2.09-1.59-2.33-.4-.53-.86-1.09-1-1.31C9.12,33.2,9,32.46,9,32.6c.06,1,.32,1,.42,1.58A2.23,2.23,0,0,1,9,34c-.24-.11-.64,0-.32,0a2.62,2.62,0,0,1,1.27.84c.68.9,1.19,2.05,1.82,3-1.59-.18-2.48-1.6-3.41-1.72-1.37-.08-2.12.62-2,.62a3.19,3.19,0,0,1,1.31-.45,2.19,2.19,0,0,1,2.08,1.07c-.67.48-1.13,0-1,.13.42.34.61,0,1.26.07.29.05,2.06.78,2.06.78a23.69,23.69,0,0,0,1.56,2c-.54.12-1,.54-1.56.48-.89,0-1.76-1.57-1.69-1.24a4,4,0,0,0,1.32,1.52,4.79,4.79,0,0,1-3.08-.56c-.13.12.62.39,1.57.83.07,0,.15.2-.55.15-.26,0,0,.13.93.06a20.52,20.52,0,0,0,3.38-.76c.64-.15,4.56,3.49,4.73,4.21l0,0a17.74,17.74,0,0,0,1.94.1c.47,0,.95,0,1.42-.05,1-4.18,2-1.58,2.51-1a.76.76,0,0,0,1,.11c-.05-.08-.17.24-.76-.1s-1-1.53-1.24-1.59c1.55-.6,3.07.34,3.32.07a11.2,11.2,0,0,1-1.94-.48c.16-.07,1-.68,1.13-.76s.41-.37.31-.48a3,3,0,0,1-1.52,1,1.51,1.51,0,0,1-1.11,0c1-1.26,1-2.27.81-2.27A2.58,2.58,0,0,1,23,42c-.06-.37.11-1.41,0-1.17A3.42,3.42,0,0,1,22,43.33c-.49-1.68-.41-4.67.45-5.83,3.45-.7,3,.88,5.47.86.79,0,1.07.42,1.46.61.65.31,2.31,0,2.36-.43a2.58,2.58,0,0,1-1.17.41,1.7,1.7,0,0,1-1.71-.65c.95-.49,1-.9,1.57-1a4,4,0,0,1,1-.09,5.53,5.53,0,0,1,1.48.09c.44.11-.42-.28-.75-.27s-1.2.14-1.56-.28c.29-.78,1.49-1.85,1.37-1.92a3.67,3.67,0,0,1-1,.76c-.08-.31.16-.65-.06-.69a2.93,2.93,0,0,1-2.68,2.88c-1.36.11-2.19-1-3.4-1.12a3.44,3.44,0,0,1-1.82-.38,20.63,20.63,0,0,1,1.78-2.59c.32-.41,1.11-1.94,1.57-2.06a1.5,1.5,0,0,1,1.42.7c.78,1,.67,2.91,1.71,2.95a2.73,2.73,0,0,1-.69-.9,12.67,12.67,0,0,0-.88-2.54A9,9,0,0,0,32.66,30c1.12.68,3.09,1.75,3.26,3.23,0,.21,0,.4-.12.41.12.14.12,0,.25-.06.26.86-.15,2.63.19,2.54-.08-.21,0-.88.24-.82a4,4,0,0,1,.44.41c0-.36-.42-.53-.5-.9a11.36,11.36,0,0,0-.62-2.74,12.1,12.1,0,0,0,2,.75,1.29,1.29,0,0,0,.84-.07,4.81,4.81,0,0,1-3.16-1.3c.42-.12,1.25-.15,1.19-.55C35.15,32,33.92,30.17,33,29.51c.91-3,5.68-2.86,6.8-.4.15.42.34.18-.38-.88-.21-.41,0-.37,0-.37,1.55,0,1.14-.26,1-.13-.89.37-3.52-1.19-5.08-1,.61-.69,1.26-1.55,2.26-1.64s1.79,1,2.69,1.09a4.62,4.62,0,0,1-1.69-1.3A2.55,2.55,0,0,1,40,24.08l.44-.07c-1-.34-1.64.67-2.25.83a8.61,8.61,0,0,1-.88,0c-.77.13-1.22.74-1.69.76.1-.54.49-.75.81-1-.69.12-1,1.2-1.13,1.44a5.37,5.37,0,0,1-1.81,1.65c0-1.7.07-3.54,1.38-3.85l.43-.14c-.66,0-1,.36-1.5.48-.08-.37-.22-1-.5-1a2.32,2.32,0,0,1-.06,2.41c-.38-.07-.73-.53-1.07-.42.34.28.86.35,1,.83a21.75,21.75,0,0,0-.26,2.33,3.37,3.37,0,0,1-1.06,1.31,5,5,0,0,1-3.07,1c.31-.47,1.09-.88,1.38-1.51a3.54,3.54,0,0,0,.25-1c-.32.72-.52,1.59-1.25,1.85-.05-.3.61-.69.31-.62-.6.11-.68,1.26-1.31,1.45a1.93,1.93,0,0,1-1.45-.28,10.41,10.41,0,0,0,.51-4.19,4.74,4.74,0,0,1,.62-3.09,6.27,6.27,0,0,1,1.82-1.17c.51-.26,1.46-1,2-1,1.17,0,2.29,1.58,3.82,1.72.55,0,1.13-.13,1.63-.07s.83.31,1.26.34a5.1,5.1,0,0,0,2.18-.48c.16-.11.54-.52.26-.27a4,4,0,0,1-2.57.48"/></g></g></svg>