<svg xmlns="http://www.w3.org/2000/svg" id="sec" xmlns:xlink="http://www.w3.org/1999/xlink" viewBox="0 0 77.9 41.5"><defs><style>.ae1{fill:none;}.ae3{fill:#841813;}.ae4{fill:#1d1d1b;}.ae5{clip-path:url(#clip-path-5);}</style><clipPath id="clip-path" transform="translate(0 -3)"><rect class="ae1" y="3" width="77.9" height="41.49"/></clipPath><clipPath id="clip-path-5" transform="translate(0 -3)"><rect class="ae1" width="77.9" height="41.49"/></clipPath></defs><g id="Capa_2" data-name="Capa 2"><g id="Capa_1-2" data-name="Capa 1"><g><path class="ae3" d="M34.39,5.59c-1.85-1.9-4.62-1.75-7-1.29A24.27,24.27,0,0,0,17.14,8.89c.19-2.21-.39-4.33-2.85-5.35C11,2.18,7.08,3.56,4.47,5.65A11.69,11.69,0,0,0,0,14.73c0,4,1.8,8.21,3.9,11.61a30.24,30.24,0,0,0,9.15,9.35c1,.64,3.56-.55,2.29-1.38A28.87,28.87,0,0,1,6.8,25.73c-2.2-3.43-4.24-7.9-3.93-12A9.78,9.78,0,0,1,8.94,5.37C10.68,4.71,13,4.69,14,6.57s.07,4.25-.59,6c-.45,1.21,2.06,1,2.54.47A21.1,21.1,0,0,1,25.86,6.6c1.78-.53,4.43-1.33,6,.09,1.79,1.66,1.57,4.38.92,6.48-.4,1.28,2.48,1.16,2.84,0,.79-2.54.78-5.55-1.19-7.58" transform="translate(0 -3)"/><path class="ae4" d="M20,23.38a2.36,2.36,0,0,0,1.31.35,1.19,1.19,0,0,0,1.34-1.21c0-1.16-2.72-1.3-2.72-2.85,0-.94.83-1.53,1.88-1.53a3.54,3.54,0,0,1,1.16.19l-.09.53a2.47,2.47,0,0,0-1.08-.22c-.61,0-1.29.26-1.29,1,0,1.18,2.73,1.19,2.73,2.91a1.74,1.74,0,0,1-1.95,1.66A3.56,3.56,0,0,1,19.93,24Z" transform="translate(0 -3)"/><path class="ae4" d="M26.76,18.14c1.79,0,2.63,1.45,2.61,3,0,1.81-.9,3.05-2.61,3.05s-2.6-1.24-2.62-3.05c0-1.59.83-3,2.62-3m-2,3c0,1.25.63,2.55,2,2.55s2-1.3,2-2.55-.63-2.54-2-2.54-2,1.29-2,2.54" transform="translate(0 -3)"/><path class="ae4" d="M34.65,18.9a3.07,3.07,0,0,0-1.33-.26,2.32,2.32,0,0,0-2.41,2.54,2.3,2.3,0,0,0,2.41,2.55,2.88,2.88,0,0,0,1.33-.26l0,.51a3.29,3.29,0,0,1-1.36.25,2.82,2.82,0,0,1-3-3.05,2.85,2.85,0,0,1,3-3,3.84,3.84,0,0,1,1.36.22Z" transform="translate(0 -3)"/></g><rect class="ae4" x="36.17" y="15.24" width="0.59" height="5.89"/><polygon class="ae4" points="38.14 15.24 41.05 15.24 41.05 15.74 38.73 15.74 38.73 17.85 40.94 17.85 40.94 18.35 38.73 18.35 38.73 20.63 41.16 20.63 41.16 21.13 38.14 21.13 38.14 15.24"/><g><path class="ae4" d="M42.35,18.24h1.47a2.65,2.65,0,0,1,3,2.94c0,2.13-1.44,2.95-3.41,2.95h-1Zm.59,5.38h.48c1.69,0,2.79-.67,2.79-2.48a2.15,2.15,0,0,0-2.41-2.4h-.86Z" transform="translate(0 -3)"/></g><path class="ae4" d="M49.9,18.24h.66l2.36,5.89h-.61l-.64-1.58h-3L48,24.13h-.57Zm.29.55-1.3,3.26h2.58Z" transform="translate(0 -3)"/><g><path class="ae4" d="M53.72,18.24h1.47a2.64,2.64,0,0,1,3,2.94c0,2.13-1.44,2.95-3.4,2.95h-1Zm.58,5.38h.49c1.69,0,2.79-.67,2.79-2.48a2.16,2.16,0,0,0-2.42-2.4H54.3Z" transform="translate(0 -3)"/></g><polygon class="ae4" points="19.91 25.37 22.83 25.37 22.83 25.88 20.5 25.88 20.5 27.98 22.71 27.98 22.71 28.48 20.5 28.48 20.5 30.76 22.93 30.76 22.93 31.26 19.91 31.26 19.91 25.37"/><g><path class="ae4" d="M24,33.51a2.37,2.37,0,0,0,1.32.35,1.18,1.18,0,0,0,1.33-1.21c0-1.16-2.72-1.3-2.72-2.85,0-.94.83-1.53,1.88-1.53a3.63,3.63,0,0,1,1.17.19l-.1.53a2.47,2.47,0,0,0-1.08-.22c-.61,0-1.29.26-1.29,1,0,1.18,2.73,1.19,2.73,2.91a1.74,1.74,0,0,1-1.95,1.66A3.38,3.38,0,0,1,24,34.11Z" transform="translate(0 -3)"/><path class="ae4" d="M28.43,28.37H29.9c1.12,0,1.84.56,1.84,1.67a1.68,1.68,0,0,1-1.9,1.67H29v2.55h-.59ZM29,31.21h.41c.89,0,1.72-.11,1.72-1.17A1.06,1.06,0,0,0,30,28.88H29Z" transform="translate(0 -3)"/></g><path class="ae4" d="M33.88,28.37h.67l2.36,5.89h-.62l-.64-1.58h-3L32,34.26h-.57Zm.29.56-1.3,3.25h2.59Z" transform="translate(0 -3)"/><g class="ae5"><path class="ae4" d="M37.67,28.37h.74l3,5.18h0V28.37H42v5.89h-.79l-3-5.08h0v5.08h-.59Zm1-.43c.07-.37.28-.76.69-.76a1.91,1.91,0,0,1,.52.1,2.15,2.15,0,0,0,.37.11.42.42,0,0,0,.42-.29H41c-.08.62-.49.74-.7.74a2,2,0,0,1-.53-.1,1.21,1.21,0,0,0-.4-.11c-.22,0-.3.11-.38.31Z" transform="translate(0 -3)"/><path class="ae4" d="M45.77,28.27c1.79,0,2.64,1.45,2.62,3.05,0,1.8-.9,3-2.62,3s-2.59-1.24-2.61-3c0-1.6.83-3.05,2.61-3.05m-2,3.05c0,1.25.63,2.54,2,2.54s2-1.29,2-2.54-.63-2.55-2-2.55-2,1.3-2,2.55" transform="translate(0 -3)"/></g><polygon class="ae4" points="49.53 25.37 50.12 25.37 50.12 30.76 52.51 30.76 52.51 31.26 49.53 31.26 49.53 25.37"/><path class="ae4" d="M55.18,28.37h.67l2.36,5.89h-.62L57,32.68H54l-.64,1.58h-.57Zm.29.56-1.29,3.25h2.58Z" transform="translate(0 -3)"/><g><path class="ae4" d="M61.37,28.37h1.47a2.65,2.65,0,0,1,3,2.94c0,2.13-1.44,2.95-3.41,2.95h-1ZM62,33.76h.48c1.69,0,2.79-.68,2.79-2.49a2.15,2.15,0,0,0-2.41-2.39H62Z" transform="translate(0 -3)"/></g><polygon class="ae4" points="67.1 25.37 70.02 25.37 70.02 25.88 67.69 25.88 67.69 27.98 69.9 27.98 69.9 28.48 67.69 28.48 67.69 30.76 70.12 30.76 70.12 31.26 67.1 31.26 67.1 25.37"/><g><path class="ae3" d="M24.53,44.31a6.09,6.09,0,0,1-1.35.18c-1.93,0-3.27-1-3.27-2.94a2.94,2.94,0,0,1,3.27-3.15,3.88,3.88,0,0,1,1.34.24l-.08,1a2.5,2.5,0,0,0-1.29-.31,2,2,0,0,0-2,2.13,2,2,0,0,0,2,2.11,3.37,3.37,0,0,0,1.3-.25Z" transform="translate(0 -3)"/></g><path class="ae3" d="M28,39.68h0l.86,2.43H27.18ZM27.4,38.5l-2.32,5.89h1.24L26.84,43h2.41l.51,1.35h1.32L28.75,38.5Z" transform="translate(0 -3)"/><g><path class="ae3" d="M31.83,38.5h1.29c1.27,0,2.8,0,2.8,1.59a1.35,1.35,0,0,1-1.23,1.37v0c.33,0,.51.35.64.61l1,2.3H35l-.72-1.84c-.17-.44-.32-.61-.82-.61H33v2.45H31.83ZM33,41h.4c.58,0,1.26-.09,1.26-.82s-.67-.77-1.26-.77H33Z" transform="translate(0 -3)"/><path class="ae3" d="M37.22,38.5h1.63c1.83,0,3.44.61,3.44,3s-1.61,2.94-3.44,2.94H37.22Zm1.2,5h.66a2,2,0,0,0,0-4h-.66Z" transform="translate(0 -3)"/></g><rect class="ae3" x="43.36" y="35.5" width="1.19" height="5.89"/><g><path class="ae3" d="M48.54,38.4a2.76,2.76,0,0,1,2.91,3,2.91,2.91,0,1,1-5.82,0,2.74,2.74,0,0,1,2.91-3m0,5.16c1.22,0,1.67-1.07,1.67-2.13s-.49-2.1-1.67-2.1-1.67,1.06-1.67,2.1.45,2.13,1.67,2.13" transform="translate(0 -3)"/></g><polygon class="ae3" points="52.63 35.5 52.63 41.39 56.13 41.39 56.13 40.46 53.82 40.46 53.82 35.5 52.63 35.5"/><g><path class="ae3" d="M59.6,38.4a2.76,2.76,0,0,1,2.91,3,2.91,2.91,0,1,1-5.82,0,2.74,2.74,0,0,1,2.91-3m0,5.16c1.22,0,1.67-1.07,1.67-2.13s-.49-2.1-1.67-2.1-1.67,1.06-1.67,2.1.45,2.13,1.67,2.13" transform="translate(0 -3)"/><path class="ae3" d="M68.33,39.64a3.92,3.92,0,0,0-1.53-.32,2,2,0,0,0-2.16,2.14,2,2,0,0,0,2,2.11,3.31,3.31,0,0,0,.79-.09V41.94H66.19V41h2.4v3.18a7.53,7.53,0,0,1-1.93.3c-1.92,0-3.26-1-3.26-2.94a2.93,2.93,0,0,1,3.26-3.15,6,6,0,0,1,1.75.24Z" transform="translate(0 -3)"/></g><path class="ae3" d="M69.82,44.39H71V38.5h-1.2Zm.61-7.5-.71,1.23h.71l1.17-1.23Z" transform="translate(0 -3)"/><path class="ae3" d="M74.86,39.68h0l.86,2.43H74Zm-.64-1.18L71.9,44.39h1.23L73.65,43h2.42l.51,1.35H77.9L75.56,38.5Z" transform="translate(0 -3)"/></g></g></svg>