<svg xmlns="http://www.w3.org/2000/svg" id="seen" xmlns:xlink="http://www.w3.org/1999/xlink" viewBox="0 0 118.64 33.23"><defs><style>.cls-1,.cls-140{fill:none;}.cls-2{clip-path:url(#clip-path);}.cls-3{fill:#333233;}.cls-4{clip-path:url(#clip-path-12);}.cls-5{fill:#afaeae;}.cls-6{fill:#b2b2b2;}.cls-7{fill:#b4b3b4;}.cls-8{fill:#b4b4b4;}.cls-9{fill:#b7b5b5;}.cls-10{fill:#b7b7b7;}.cls-11{fill:#b8b8b8;}.cls-12{fill:#bab9b9;}.cls-13{fill:#babbb9;}.cls-14{fill:#babbbb;}.cls-15{fill:#bcbcbb;}.cls-16{fill:#c0bfbf;}.cls-17{fill:#c2c2c2;}.cls-18{fill:#c4c3c2;}.cls-19{fill:#c4c4c3;}.cls-20{fill:#c8c6c5;}.cls-21{fill:#c8c7c6;}.cls-22{fill:#cac9c7;}.cls-23{fill:#cac9c9;}.cls-24{fill:#cacbca;}.cls-25{fill:#cccbca;}.cls-26{fill:#cccbcc;}.cls-27{fill:#cfcecf;}.cls-28{fill:#d1d2d1;}.cls-29{fill:#d3d3d3;}.cls-30{fill:#d3d4d5;}.cls-31{fill:#d6d5d5;}.cls-32{fill:#d8d8d8;}.cls-33{fill:#dadad9;}.cls-34{fill:#dadadb;}.cls-35{fill:#dcdbd9;}.cls-36{fill:#dedcdb;}.cls-37{fill:#dedede;}.cls-38{fill:#e1e0df;}.cls-39{fill:#e0e0e1;}.cls-40{fill:#e5e4e4;}.cls-41{fill:#e5e6e5;}.cls-42{fill:#e7e6e5;}.cls-43{fill:#e7e7e7;}.cls-44{fill:#e9e8e9;}.cls-45{fill:#e9e9e9;}.cls-46{fill:#ebeaea;}.cls-47{fill:#ebeceb;}.cls-48{fill:#ededed;}.cls-49{fill:#ededee;}.cls-50{fill:#f0f0ef;}.cls-51{fill:#f2f0ef;}.cls-52{fill:#f2f1f1;}.cls-53{fill:#f4f3f2;}.cls-54{fill:#f4f3f4;}.cls-55{fill:#f6f6f7;}.cls-56{fill:#f8f7f7;}.cls-57{fill:#f8f9f9;}.cls-58{fill:#fafafa;}.cls-59{fill:#fff;}.cls-60{clip-path:url(#clip-path-13);}.cls-61{fill:#1e1e1c;}.cls-62{fill:#2d2e2c;}.cls-63{fill:#3a3a3a;}.cls-64{fill:#484847;}.cls-65{fill:#555453;}.cls-66{fill:#616060;}.cls-67{fill:#6d6c6b;}.cls-68{fill:#767676;}.cls-69{fill:gray;}.cls-70{fill:#898888;}.cls-71{fill:#939492;}.cls-72{fill:#9d9d9c;}.cls-73{fill:#a6a6a5;}.cls-74{fill:#b2b2b0;}.cls-75{fill:#dcdbdb;}.cls-76{clip-path:url(#clip-path-14);}.cls-77{fill:#ec7b47;}.cls-78{fill:#ed8050;}.cls-79{fill:#ee8658;}.cls-80{fill:#ef8b5f;}.cls-81{fill:#f09266;}.cls-82{fill:#f19970;}.cls-83{fill:#f29e77;}.cls-84{fill:#f2a47f;}.cls-85{fill:#f3ab83;}.cls-86{fill:#f4b28b;}.cls-87{fill:#f5b694;}.cls-88{fill:#f6bc9c;}.cls-89{fill:#f7c3a4;}.cls-90{fill:#f7c7ab;}.cls-91{fill:#f8cdb3;}.cls-92{fill:#f9d3bd;}.cls-93{fill:#f9d8c5;}.cls-94{fill:#faddcd;}.cls-95{fill:#fae3d5;}.cls-96{fill:#fbe9de;}.cls-97{fill:#fbede5;}.cls-98{clip-path:url(#clip-path-15);}.cls-99{fill:#f1976b;}.cls-100{fill:#f1996e;}.cls-101{fill:#f19c74;}.cls-102{fill:#f2a079;}.cls-103{fill:#f2a27c;}.cls-104{fill:#f3a780;}.cls-105{fill:#f3a981;}.cls-106{fill:#f4ad86;}.cls-107{fill:#f4af89;}.cls-108{fill:#f4b28d;}.cls-109{fill:#f5b490;}.cls-110{fill:#f5b693;}.cls-111{fill:#f5b895;}.cls-112{fill:#f5b897;}.cls-113{fill:#f5ba9a;}.cls-114{fill:#f6bf9f;}.cls-115{fill:#f6c1a2;}.cls-116{fill:#f7c3a6;}.cls-117{fill:#f7c5a9;}.cls-118{fill:#f7c9ae;}.cls-119{fill:#f8cbb1;}.cls-120{fill:#f8cfb6;}.cls-121{fill:#f8d1b9;}.cls-122{fill:#f9d3bc;}.cls-123{fill:#f9d5c0;}.cls-124{fill:#f9d6c2;}.cls-125{fill:#f9dac7;}.cls-126{fill:#f9dbca;}.cls-127{fill:#fadfcf;}.cls-128{fill:#fae1d2;}.cls-129{fill:#fae5d9;}.cls-130{fill:#fae7db;}.cls-131{fill:#fbebe1;}.cls-132{fill:#fbede4;}.cls-133{fill:#fbefe6;}.cls-134{fill:#fbefe8;}.cls-135{fill:#fbf1eb;}.cls-136{fill:#fff3ed;}.cls-137{fill:#fff5f2;}.cls-138{fill:#fff7f4;}.cls-139{fill:#fff9f7;}.cls-140{stroke:#fff;stroke-miterlimit:3.86;stroke-width:0.01px;}</style><clipPath id="clip-path" transform="translate(0 0.31)"><rect class="cls-1" width="118.53" height="32.92"/></clipPath><clipPath id="clip-path-12" transform="translate(0 0.31)"><path class="cls-1" d="M77.49,8.84c-2.28,6.45,4.12,15.41,14.31,20s20.3,3.1,22.59-3.35-4.12-15.41-14.31-20A28.21,28.21,0,0,0,88.61,2.83c-5.44,0-9.73,2.09-11.12,6"/></clipPath><clipPath id="clip-path-13" transform="translate(0 0.31)"><path class="cls-1" d="M83.83.58c-2.48,1.63-2.68,6.27-.45,10.34s6,6,8.52,4.41S94.58,9.06,92.35,5c-1.7-3.1-4.32-5-6.56-5a3.49,3.49,0,0,0-2,.58"/></clipPath><clipPath id="clip-path-14" transform="translate(0 0.31)"><path class="cls-1" d="M85.31,22.54c-1.8,3.5-1.31,7.15,1.1,8.14s5.82-1,7.62-4.52S95.35,19,93,18a3.54,3.54,0,0,0-1.33-.26c-2.21,0-4.81,1.89-6.31,4.78"/></clipPath><clipPath id="clip-path-15" transform="translate(0 0.31)"><path class="cls-1" d="M94.23,15.06c-.34,4.35,4.81,8.76,11.52,9.86s12.42-1.53,12.76-5.88c0-.13,0-.26,0-.39v0c0-4.21-5.06-8.36-11.54-9.43a19.64,19.64,0,0,0-3-.24c-5.33,0-9.47,2.45-9.76,6.13"/></clipPath></defs><g id="Capa_2" data-name="Capa 2"><g id="Capa_1-2" data-name="Capa 1"><g class="cls-2"><path class="cls-3" d="M35.22,2.83a7.56,7.56,0,0,1,1.56.2,4.28,4.28,0,0,1,1.57.66A1.39,1.39,0,0,1,39,4.87a1.63,1.63,0,0,1-.36,1.07,1.14,1.14,0,0,1-.94.45,1.84,1.84,0,0,1-.57-.11l-.63-.23a4.2,4.2,0,0,0-.66-.21,3.11,3.11,0,0,0-.71-.07A1.77,1.77,0,0,0,34,6.13a1.16,1.16,0,0,0-.47,1c0,.44.35.79,1.05,1.06L37,9a5.34,5.34,0,0,1,2.18,1.39A3.77,3.77,0,0,1,40,13.11a4.59,4.59,0,0,1-.67,2.48,4.65,4.65,0,0,1-1.81,1.68,5.3,5.3,0,0,1-2.48.58,10,10,0,0,1-3.18-.51c-1-.34-1.53-.93-1.53-1.78a1.52,1.52,0,0,1,.36-1,1.18,1.18,0,0,1,.94-.41,2.05,2.05,0,0,1,.62.1c.23.06.52.16.87.29s.67.23.93.3a3.25,3.25,0,0,0,.83.1A2.32,2.32,0,0,0,36,14.69a1.64,1.64,0,0,0,.68-.62,1.84,1.84,0,0,0,.23-.91,1,1,0,0,0-.52-1C36,12,35.23,11.7,34,11.29a7.33,7.33,0,0,1-2.72-1.43,3.12,3.12,0,0,1-.87-2.4A4.48,4.48,0,0,1,31.07,5,4.43,4.43,0,0,1,32.83,3.4a5.14,5.14,0,0,1,2.39-.57" transform="translate(0 0.31)"/><path class="cls-3" d="M41.88,16.07V4.85a2,2,0,0,1,.39-1.28,1.34,1.34,0,0,1,1.13-.49h4.8a1.3,1.3,0,0,1,1,.41,1.53,1.53,0,0,1,.19,1.69A1.28,1.28,0,0,1,49,5.7a1.4,1.4,0,0,1-.75.2H44.79v3H48A1.33,1.33,0,0,1,49,9.28a1.45,1.45,0,0,1,.37,1,1.44,1.44,0,0,1-.38,1,1.32,1.32,0,0,1-1,.43H44.79v3.1h3.58a1.27,1.27,0,0,1,1,.41,1.45,1.45,0,0,1,.35,1,1.53,1.53,0,0,1-.16.67,1.2,1.2,0,0,1-.47.53,1.32,1.32,0,0,1-.75.2h-5a1.46,1.46,0,0,1-1.5-1.53" transform="translate(0 0.31)"/><path class="cls-3" d="M51.47,16.07V4.85a2,2,0,0,1,.39-1.28A1.35,1.35,0,0,1,53,3.08h4.8a1.3,1.3,0,0,1,1,.41A1.53,1.53,0,0,1,59,5.18a1.28,1.28,0,0,1-.46.52,1.4,1.4,0,0,1-.75.2H54.38v3h3.18a1.33,1.33,0,0,1,1,.41,1.45,1.45,0,0,1,.37,1,1.44,1.44,0,0,1-.38,1,1.3,1.3,0,0,1-1,.43H54.38v3.1H58a1.27,1.27,0,0,1,1,.41,1.45,1.45,0,0,1,.35,1,1.53,1.53,0,0,1-.16.67,1.2,1.2,0,0,1-.47.53,1.32,1.32,0,0,1-.75.2H53a1.45,1.45,0,0,1-1.07-.42,1.51,1.51,0,0,1-.43-1.11" transform="translate(0 0.31)"/><path class="cls-3" d="M61,16.14V4.54a1.57,1.57,0,0,1,.41-1.16,1.37,1.37,0,0,1,1-.42,1.49,1.49,0,0,1,.67.2,1.44,1.44,0,0,1,.55.47l6.15,8.62h0V4.54a1.6,1.6,0,0,1,.4-1.16,1.39,1.39,0,0,1,1-.42,1.43,1.43,0,0,1,1.06.41,1.61,1.61,0,0,1,.4,1.17v11.6a1.61,1.61,0,0,1-.4,1.17,1.39,1.39,0,0,1-1.06.41,1.42,1.42,0,0,1-.63-.19,2,2,0,0,1-.59-.47L63.89,8.53h0v7.61a1.61,1.61,0,0,1-.4,1.17,1.39,1.39,0,0,1-1.05.41,1.37,1.37,0,0,1-1-.42A1.54,1.54,0,0,1,61,16.14" transform="translate(0 0.31)"/><path class="cls-3" d="M13.06,21.38A1,1,0,0,0,12,20.47c-.39,0-1,.1-1,.79,0,.38.27.5.53.56l1.28.3a1.16,1.16,0,0,1,1,1.2c0,1.06-1,1.36-1.75,1.36a1.74,1.74,0,0,1-1.36-.44,1.37,1.37,0,0,1-.46-1.13h.57c0,.81.66,1.05,1.24,1.05s1.18-.11,1.18-.76c0-.47-.22-.62-1-.79l-.92-.22a1.07,1.07,0,0,1-1-1.05A1.38,1.38,0,0,1,11.88,20c1.57,0,1.72.94,1.75,1.43Z" transform="translate(0 0.31)"/><path class="cls-3" d="M15.79,24.17c.78,0,.95-.81.95-1.25s-.17-1.25-.95-1.25-1,.81-1,1.25.17,1.25,1,1.25m0-3a1.56,1.56,0,0,1,1.51,1.73,1.53,1.53,0,1,1-3,0,1.56,1.56,0,0,1,1.52-1.73" transform="translate(0 0.31)"/><path class="cls-3" d="M20,22.39a.73.73,0,0,0-.78-.7c-.68,0-.9.65-.9,1.23s.14,1.26.89,1.26A.85.85,0,0,0,20,23.4h.53a1.3,1.3,0,0,1-1.33,1.25A1.47,1.47,0,0,1,17.71,23c0-1,.49-1.82,1.57-1.82a1.19,1.19,0,0,1,1.23,1.2Z" transform="translate(0 0.31)"/></g><path class="cls-3" d="M21.07,24.56h.55V21.29h-.55Zm0-3.87h.55v-.62h-.55Z" transform="translate(0 0.31)"/><g class="cls-2"><path class="cls-3" d="M24.7,22.66c0-.5-.25-1-.92-1a1,1,0,0,0-.9,1Zm.52.87a1.4,1.4,0,0,1-.58.9,1.41,1.41,0,0,1-.89.22A1.46,1.46,0,0,1,22.29,23c0-1,.49-1.82,1.57-1.82s1.41.75,1.41,1.91H22.88c0,.68.32,1.08.95,1.08a.82.82,0,0,0,.84-.65Z" transform="translate(0 0.31)"/><path class="cls-3" d="M27.19,24.18c.35,0,.89-.23.89-1.1,0-.54-.09-1.39-.88-1.39s-.9.8-.9,1.22c0,.72.29,1.27.89,1.27m1.45.38h-.52v-.45h0a1,1,0,0,1-.94.54c-1.11,0-1.43-1-1.43-1.83s.49-1.63,1.36-1.63a1.1,1.1,0,0,1,1,.56l0,0V20.07h.55Z" transform="translate(0 0.31)"/><path class="cls-3" d="M31.4,22.89c-.09.07-.23.12-.91.2-.27,0-.7.12-.7.54s.18.56.59.56,1-.33,1-.76Zm-2-.61c0-.78.55-1.09,1.35-1.09.27,0,1.22.08,1.22.92V24c0,.14.06.19.18.19l.18,0v.4a1.22,1.22,0,0,1-.3.06c-.49,0-.56-.25-.58-.5a1.51,1.51,0,0,1-1.18.53.94.94,0,0,1-1-.94,1,1,0,0,1,1-1l.91-.11c.13,0,.29-.06.29-.39s-.25-.53-.77-.53a.65.65,0,0,0-.75.63Z" transform="translate(0 0.31)"/><path class="cls-3" d="M34.14,24.18c.35,0,.9-.23.9-1.1,0-.54-.09-1.39-.89-1.39s-.89.8-.89,1.22c0,.72.28,1.27.88,1.27m1.45.38h-.52v-.45h0a1,1,0,0,1-.93.54c-1.12,0-1.44-1-1.44-1.83s.49-1.63,1.36-1.63a1.1,1.1,0,0,1,1,.56V20.07h.55Z" transform="translate(0 0.31)"/></g><polygon class="cls-3" points="41.54 24.87 38.23 24.87 38.23 20.38 41.49 20.38 41.49 20.91 38.83 20.91 38.83 22.29 41.29 22.29 41.29 22.83 38.83 22.83 38.83 24.33 41.54 24.33 41.54 24.87"/><g class="cls-2"><path class="cls-3" d="M44.12,22.22c0-.21-.08-.55-.77-.55-.17,0-.65.06-.65.46s.17.33.59.44l.55.14c.68.17.92.42.92.86,0,.68-.56,1.08-1.29,1.08-1.3,0-1.39-.75-1.41-1.14h.53c0,.25.09.67.87.67.39,0,.75-.16.75-.52s-.18-.35-.65-.47L42.92,23c-.46-.11-.75-.34-.75-.79,0-.72.59-1,1.23-1,1.17,0,1.25.87,1.25,1Z" transform="translate(0 0.31)"/><path class="cls-3" d="M46.77,24.18c.6,0,.88-.55.88-1.27,0-.42,0-1.22-.89-1.22s-.89.85-.89,1.38c0,.87.55,1.11.9,1.11m-1.42-2.89h.52v.46h0a1.1,1.1,0,0,1,1-.56c.86,0,1.36.72,1.36,1.64s-.33,1.82-1.44,1.82a1,1,0,0,1-.87-.44h0v1.64h-.55Z" transform="translate(0 0.31)"/><path class="cls-3" d="M50.86,22.89c-.08.07-.22.12-.9.2-.27,0-.7.12-.7.54s.18.56.59.56,1-.33,1-.76Zm-2-.61c0-.78.55-1.09,1.35-1.09.26,0,1.22.08,1.22.92V24c0,.14.06.19.18.19l.18,0v.4a1.33,1.33,0,0,1-.3.06c-.49,0-.57-.25-.58-.5a1.52,1.52,0,0,1-1.19.53.94.94,0,0,1-1-.94,1,1,0,0,1,1-1l.91-.11c.13,0,.29-.06.29-.39s-.25-.53-.77-.53a.65.65,0,0,0-.75.63Z" transform="translate(0 0.31)"/><path class="cls-3" d="M54.69,20c0,.38-.27.68-.63.68a1,1,0,0,1-.37-.08l-.16-.05a1.19,1.19,0,0,0-.38-.1c-.17,0-.25.12-.3.28h-.3c.05-.37.23-.67.65-.67a1.13,1.13,0,0,1,.43.09l.14.06a1,1,0,0,0,.29.08c.25,0,.29-.17.31-.29ZM55,24.56h-.55v-2c0-.56-.16-.85-.7-.85-.31,0-.86.2-.86,1.08v1.79h-.55V21.29h.52v.46h0a1.17,1.17,0,0,1,1-.56A1,1,0,0,1,55,22.33Z" transform="translate(0 0.31)"/><path class="cls-3" d="M57.16,24.17c.78,0,1-.81,1-1.25s-.17-1.25-1-1.25-1,.81-1,1.25.17,1.25,1,1.25m0-3a1.57,1.57,0,0,1,1.52,1.73,1.53,1.53,0,1,1-3,0,1.56,1.56,0,0,1,1.52-1.73" transform="translate(0 0.31)"/></g><rect class="cls-3" x="59.31" y="20.38" width="0.55" height="4.49"/><g class="cls-2"><path class="cls-3" d="M62.69,22.89c-.09.07-.23.12-.91.2-.27,0-.7.12-.7.54s.18.56.59.56,1-.33,1-.76Zm-2-.61c0-.78.55-1.09,1.35-1.09.26,0,1.22.08,1.22.92V24c0,.14.06.19.18.19l.18,0v.4a1.33,1.33,0,0,1-.3.06c-.49,0-.57-.25-.58-.5a1.52,1.52,0,0,1-1.19.53.94.94,0,0,1-1-.94,1,1,0,0,1,1-1l.91-.11c.13,0,.29-.06.29-.39s-.25-.53-.77-.53a.65.65,0,0,0-.75.63Z" transform="translate(0 0.31)"/><path class="cls-3" d="M67.17,24.18c.35,0,.89-.23.89-1.1,0-.54-.09-1.39-.88-1.39s-.89.8-.89,1.22c0,.72.28,1.27.88,1.27m1.45.38H68.1v-.45h0a1,1,0,0,1-.93.54c-1.12,0-1.44-1-1.44-1.83s.49-1.63,1.36-1.63a1.12,1.12,0,0,1,1,.56V20.07h.55Z" transform="translate(0 0.31)"/><path class="cls-3" d="M71.63,22.66c0-.5-.24-1-.91-1a1,1,0,0,0-.91,1Zm.53.87a1.44,1.44,0,0,1-.58.9,1.41,1.41,0,0,1-.89.22A1.46,1.46,0,0,1,69.23,23c0-1,.48-1.82,1.57-1.82.94,0,1.4.75,1.4,1.91H69.81c0,.68.32,1.08,1,1.08a.84.84,0,0,0,.85-.65Z" transform="translate(0 0.31)"/></g><polygon class="cls-3" points="0 27.36 0 31.86 3.31 31.86 3.31 31.32 0.61 31.32 0.61 29.82 3.07 29.82 3.07 29.28 0.61 29.28 0.61 27.9 3.27 27.9 3.27 27.36 0 27.36"/><g class="cls-2"><path class="cls-3" d="M6.7,31.54H6.15v-2c0-.57-.16-.86-.7-.86-.31,0-.86.2-.86,1.09v1.78H4V28.27h.52v.47h0a1.19,1.19,0,0,1,1-.56A1,1,0,0,1,6.7,29.32Z" transform="translate(0 0.31)"/><path class="cls-3" d="M8.78,31.16c.35,0,.9-.23.9-1.1,0-.53-.09-1.39-.89-1.39s-.89.81-.89,1.23c0,.72.28,1.26.88,1.26m1.45.38H9.71v-.45h0a1,1,0,0,1-.93.55c-1.12,0-1.44-1.05-1.44-1.83s.49-1.63,1.36-1.63a1.1,1.1,0,0,1,1,.56V27.05h.55Z" transform="translate(0 0.31)"/><path class="cls-3" d="M12.33,31.16c.79,0,.95-.82.95-1.25s-.16-1.25-.95-1.25-.95.81-.95,1.25.16,1.25.95,1.25m0-3a1.57,1.57,0,0,1,1.52,1.73,1.53,1.53,0,1,1-3,0,1.56,1.56,0,0,1,1.52-1.73" transform="translate(0 0.31)"/><path class="cls-3" d="M16.52,29.37a.74.74,0,0,0-.78-.7c-.68,0-.9.65-.9,1.24s.14,1.25.9,1.25a.84.84,0,0,0,.78-.77h.53a1.3,1.3,0,0,1-1.33,1.25A1.48,1.48,0,0,1,14.25,30c0-1,.49-1.82,1.57-1.82a1.18,1.18,0,0,1,1.23,1.19Z" transform="translate(0 0.31)"/><path class="cls-3" d="M18.22,31.54h-.55V28.27h.52v.55h0a1,1,0,0,1,.92-.64l.14,0v.57h-.21a.83.83,0,0,0-.84.87Z" transform="translate(0 0.31)"/></g><path class="cls-3" d="M19.69,31.55h.56V28.27h-.56Zm0-3.87h.56v-.63h-.56Z" transform="translate(0 0.31)"/><g class="cls-2"><path class="cls-3" d="M23.73,31.54h-.55v-2c0-.57-.16-.86-.7-.86-.31,0-.86.2-.86,1.09v1.78h-.55V28.27h.52v.47h0a1.19,1.19,0,0,1,1-.56,1,1,0,0,1,1.14,1.14Z" transform="translate(0 0.31)"/><path class="cls-3" d="M25.88,31.16c.79,0,.95-.82.95-1.25s-.16-1.25-.95-1.25-.95.81-.95,1.25.16,1.25.95,1.25m0-3a1.57,1.57,0,0,1,1.52,1.73,1.53,1.53,0,1,1-3,0,1.57,1.57,0,0,1,1.52-1.73" transform="translate(0 0.31)"/></g><rect class="cls-3" x="28.04" y="27.36" width="0.55" height="4.49"/><g class="cls-2"><path class="cls-3" d="M30.75,31.16c.78,0,.95-.82.95-1.25s-.17-1.25-.95-1.25-1,.81-1,1.25.17,1.25,1,1.25m0-3a1.56,1.56,0,0,1,1.51,1.73,1.53,1.53,0,1,1-3,0,1.56,1.56,0,0,1,1.52-1.73" transform="translate(0 0.31)"/><path class="cls-3" d="M34.19,31.16c.35,0,.89-.23.89-1.1,0-.53-.09-1.39-.88-1.39s-.9.81-.9,1.23c0,.72.28,1.26.89,1.26m1.41.12a1.39,1.39,0,0,1-1.51,1.64,1.13,1.13,0,0,1-1.26-1h.55a.68.68,0,0,0,.74.51c1,0,.93-.76.93-1.15v-.13h0v0a1,1,0,0,1-.87.44c-1.11,0-1.44-1.05-1.44-1.83s.5-1.63,1.37-1.63a1.1,1.1,0,0,1,1,.56h0v-.47h.51Z" transform="translate(0 0.31)"/></g><path class="cls-3" d="M36.55,31.55h.56V28.27h-.56Zm.56-4.6-.56.89H37l.81-.89Z" transform="translate(0 0.31)"/><g class="cls-2"><path class="cls-3" d="M40.1,29.88c-.09.06-.22.11-.9.2-.28,0-.71.12-.71.53a.52.52,0,0,0,.6.57c.51,0,1-.33,1-.77Zm-2-.61c0-.78.54-1.09,1.35-1.09.26,0,1.21.07,1.21.91V31a.17.17,0,0,0,.18.19.62.62,0,0,0,.18,0v.4a.83.83,0,0,1-.3.07c-.48,0-.56-.25-.58-.5a1.48,1.48,0,0,1-1.18.53.94.94,0,0,1-1-.95,1,1,0,0,1,1-1l.91-.11c.13,0,.28-.07.28-.39s-.25-.53-.77-.53a.65.65,0,0,0-.75.63Z" transform="translate(0 0.31)"/><path class="cls-3" d="M45.37,28.27H46c-.38,1.07-.75,2.14-1.17,3.21-.52,1.33-.58,1.4-1.28,1.4a.59.59,0,0,1-.23-.05v-.5a.77.77,0,0,0,.33.06c.28,0,.32-.08.58-.76L43,28.27h.63l.87,2.67h0Z" transform="translate(0 0.31)"/></g><polygon class="cls-3" points="51.23 27.36 51.23 30.99 51.22 30.99 48.98 27.36 48.26 27.36 48.26 31.86 48.84 31.86 48.84 28.23 48.85 28.23 51.14 31.86 51.82 31.86 51.82 27.36 51.23 27.36"/><g class="cls-2"><path class="cls-3" d="M54.84,31.54v-.47h0a1.08,1.08,0,0,1-1,.58,1,1,0,0,1-1.06-1V28.27h.55v2.17c0,.54.28.72.63.72.7,0,.9-.61.9-1.08V28.27h.55v3.27Z" transform="translate(0 0.31)"/><path class="cls-3" d="M56.86,28.73v2.13c0,.25.21.25.33.25h.19v.43l-.41.05c-.55,0-.66-.31-.66-.7V28.73h-.45v-.46h.45v-.91h.55v.91h.52v.46Z" transform="translate(0 0.31)"/><path class="cls-3" d="M58.54,31.54H58V28.27h.52v.55h0a1.08,1.08,0,0,1,.93-.64l.14,0v.57h-.21a.83.83,0,0,0-.84.87Z" transform="translate(0 0.31)"/></g><path class="cls-3" d="M60,31.55h.56V28.27H60Zm0-3.87h.56v-.63H60Z" transform="translate(0 0.31)"/><g class="cls-2"><path class="cls-3" d="M63.44,29.37a.74.74,0,0,0-.78-.7c-.68,0-.9.65-.9,1.24s.14,1.25.89,1.25a.84.84,0,0,0,.79-.77H64a1.3,1.3,0,0,1-1.33,1.25A1.47,1.47,0,0,1,61.17,30c0-1,.49-1.82,1.57-1.82A1.18,1.18,0,0,1,64,29.37Z" transform="translate(0 0.31)"/></g><path class="cls-3" d="M64.53,31.55h.55V28.27h-.55Zm0-3.87h.55v-.63h-.55Z" transform="translate(0 0.31)"/><g class="cls-2"><path class="cls-3" d="M67.38,27.84H67l.56-.89h.67Zm-.14,3.32c.79,0,1-.82,1-1.25s-.16-1.25-1-1.25-.95.81-.95,1.25.16,1.25.95,1.25m0-3a1.57,1.57,0,0,1,1.52,1.73,1.53,1.53,0,1,1-3,0,1.56,1.56,0,0,1,1.52-1.73" transform="translate(0 0.31)"/><path class="cls-3" d="M72.05,31.54H71.5v-2c0-.57-.17-.86-.7-.86-.32,0-.87.2-.87,1.09v1.78h-.55V28.27h.52v.47h0a1.19,1.19,0,0,1,1-.56,1,1,0,0,1,1.15,1.14Z" transform="translate(0 0.31)"/></g><g class="cls-4"><rect class="cls-5" x="76.94" y="3.16" width="0.44" height="28.68"/><rect class="cls-6" x="77.4" y="3.16" width="0.44" height="28.68"/><rect class="cls-6" x="77.86" y="3.16" width="0.44" height="28.68"/><rect class="cls-6" x="78.31" y="3.16" width="0.44" height="28.68"/><rect class="cls-7" x="78.77" y="3.16" width="0.44" height="28.68"/><rect class="cls-8" x="79.23" y="3.16" width="0.44" height="28.68"/><rect class="cls-8" x="79.69" y="3.16" width="0.44" height="28.68"/><rect class="cls-9" x="80.15" y="3.16" width="0.44" height="28.68"/><rect class="cls-10" x="80.61" y="3.16" width="0.44" height="28.68"/><rect class="cls-11" x="81.07" y="3.16" width="0.44" height="28.68"/><rect class="cls-12" x="81.52" y="3.16" width="0.44" height="28.68"/><rect class="cls-13" x="81.98" y="3.16" width="0.44" height="28.68"/><rect class="cls-14" x="82.44" y="3.16" width="0.44" height="28.68"/><rect class="cls-14" x="82.9" y="3.16" width="0.44" height="28.68"/><rect class="cls-15" x="83.36" y="3.16" width="0.44" height="28.68"/><rect class="cls-16" x="83.82" y="3.16" width="0.44" height="28.68"/><rect class="cls-16" x="84.27" y="3.16" width="0.44" height="28.68"/><rect class="cls-16" x="84.73" y="3.16" width="0.44" height="28.68"/><rect class="cls-17" x="85.19" y="3.16" width="0.44" height="28.68"/><rect class="cls-17" x="85.65" y="3.16" width="0.44" height="28.68"/><rect class="cls-18" x="86.11" y="3.16" width="0.44" height="28.68"/><rect class="cls-19" x="86.57" y="3.16" width="0.44" height="28.68"/><rect class="cls-19" x="87.02" y="3.16" width="0.44" height="28.68"/><rect class="cls-20" x="87.48" y="3.16" width="0.44" height="28.68"/><rect class="cls-21" x="87.94" y="3.16" width="0.44" height="28.68"/><rect class="cls-22" x="88.4" y="3.16" width="0.44" height="28.68"/><rect class="cls-23" x="88.86" y="3.16" width="0.44" height="28.68"/><rect class="cls-24" x="89.31" y="3.16" width="0.44" height="28.68"/><rect class="cls-25" x="89.77" y="3.16" width="0.44" height="28.68"/><rect class="cls-25" x="90.23" y="3.16" width="0.44" height="28.68"/><rect class="cls-26" x="90.69" y="3.16" width="0.44" height="28.68"/><rect class="cls-27" x="91.15" y="3.16" width="0.44" height="28.68"/><rect class="cls-27" x="91.61" y="3.16" width="0.44" height="28.68"/><rect class="cls-27" x="92.07" y="3.16" width="0.44" height="28.68"/><rect class="cls-28" x="92.52" y="3.16" width="0.44" height="28.68"/><rect class="cls-28" x="92.98" y="3.16" width="0.44" height="28.68"/><rect class="cls-29" x="93.44" y="3.16" width="0.44" height="28.68"/><rect class="cls-30" x="93.9" y="3.16" width="0.44" height="28.68"/><rect class="cls-31" x="94.36" y="3.16" width="0.44" height="28.68"/><rect class="cls-31" x="94.82" y="3.16" width="0.44" height="28.68"/><rect class="cls-31" x="95.27" y="3.16" width="0.44" height="28.68"/><rect class="cls-32" x="95.73" y="3.16" width="0.44" height="28.68"/><rect class="cls-32" x="96.19" y="3.16" width="0.44" height="28.68"/><rect class="cls-33" x="96.65" y="3.16" width="0.44" height="28.68"/><rect class="cls-33" x="97.11" y="3.16" width="0.44" height="28.68"/><rect class="cls-34" x="97.57" y="3.16" width="0.44" height="28.68"/><rect class="cls-35" x="98.03" y="3.16" width="0.44" height="28.68"/><rect class="cls-36" x="98.48" y="3.16" width="0.44" height="28.68"/><rect class="cls-37" x="98.94" y="3.16" width="0.44" height="28.68"/><rect class="cls-37" x="99.4" y="3.16" width="0.44" height="28.68"/><rect class="cls-37" x="99.86" y="3.16" width="0.44" height="28.68"/><rect class="cls-38" x="100.32" y="3.16" width="0.44" height="28.68"/><rect class="cls-39" x="100.78" y="3.16" width="0.44" height="28.68"/><rect class="cls-39" x="101.23" y="3.16" width="0.44" height="28.68"/><rect class="cls-40" x="101.69" y="3.16" width="0.44" height="28.68"/><rect class="cls-40" x="102.15" y="3.16" width="0.44" height="28.68"/><rect class="cls-41" x="102.61" y="3.16" width="0.44" height="28.68"/><rect class="cls-42" x="103.07" y="3.16" width="0.44" height="28.68"/><rect class="cls-43" x="103.52" y="3.16" width="0.44" height="28.68"/><rect class="cls-43" x="103.98" y="3.16" width="0.44" height="28.68"/><rect class="cls-44" x="104.44" y="3.16" width="0.44" height="28.68"/><rect class="cls-45" x="104.9" y="3.16" width="0.44" height="28.68"/><rect class="cls-46" x="105.36" y="3.16" width="0.44" height="28.68"/><rect class="cls-47" x="105.82" y="3.16" width="0.44" height="28.68"/><rect class="cls-48" x="106.28" y="3.16" width="0.44" height="28.68"/><rect class="cls-48" x="106.73" y="3.16" width="0.44" height="28.68"/><rect class="cls-49" x="107.19" y="3.16" width="0.44" height="28.68"/><rect class="cls-50" x="107.65" y="3.16" width="0.44" height="28.68"/><rect class="cls-50" x="108.11" y="3.16" width="0.44" height="28.68"/><rect class="cls-51" x="108.57" y="3.16" width="0.44" height="28.68"/><rect class="cls-52" x="109.02" y="3.16" width="0.44" height="28.68"/><rect class="cls-52" x="109.48" y="3.16" width="0.44" height="28.68"/><rect class="cls-53" x="109.94" y="3.16" width="0.44" height="28.68"/><rect class="cls-54" x="110.4" y="3.16" width="0.44" height="28.68"/><rect class="cls-55" x="110.86" y="3.16" width="0.44" height="28.68"/><rect class="cls-56" x="111.32" y="3.16" width="0.44" height="28.68"/><rect class="cls-56" x="111.78" y="3.16" width="0.44" height="28.68"/><rect class="cls-57" x="112.23" y="3.16" width="0.44" height="28.68"/><rect class="cls-57" x="112.69" y="3.16" width="0.44" height="28.68"/><rect class="cls-58" x="113.15" y="3.16" width="0.44" height="28.68"/><rect class="cls-59" x="113.61" y="3.16" width="0.44" height="28.68"/><rect class="cls-59" x="114.07" y="3.16" width="0.44" height="28.68"/><rect class="cls-59" x="114.53" y="3.16" width="0.44" height="28.68"/><rect class="cls-59" x="114.74" y="3.16" width="0.11" height="28.68"/></g><g class="cls-60"><rect class="cls-61" x="87.22" y="9.5" width="0.48" height="12.36" transform="translate(67.23 102.51) rotate(-87)"/><rect class="cls-62" x="87.25" y="9.04" width="0.48" height="12.36" transform="translate(67.71 102.1) rotate(-87)"/><rect class="cls-63" x="87.27" y="8.58" width="0.48" height="12.36" transform="translate(68.19 101.69) rotate(-87)"/><rect class="cls-64" x="87.29" y="8.12" width="0.48" height="12.36" transform="translate(68.68 101.28) rotate(-87)"/><rect class="cls-65" x="87.32" y="7.66" width="0.48" height="12.36" transform="translate(69.16 100.86) rotate(-87)"/><rect class="cls-66" x="87.34" y="7.2" width="0.48" height="12.36" transform="translate(69.64 100.45) rotate(-87)"/><rect class="cls-67" x="87.37" y="6.74" width="0.48" height="12.36" transform="translate(70.12 100.04) rotate(-87)"/><rect class="cls-68" x="87.39" y="6.28" width="0.48" height="12.36" transform="translate(70.61 99.63) rotate(-87)"/><rect class="cls-69" x="87.41" y="5.82" width="0.48" height="12.36" transform="translate(71.09 99.22) rotate(-87)"/><rect class="cls-70" x="87.44" y="5.36" width="0.48" height="12.36" transform="translate(71.57 98.81) rotate(-87)"/><rect class="cls-71" x="87.46" y="4.9" width="0.48" height="12.36" transform="translate(72.05 98.39) rotate(-87)"/><rect class="cls-72" x="87.49" y="4.44" width="0.48" height="12.36" transform="translate(72.53 97.98) rotate(-87)"/><rect class="cls-73" x="87.51" y="3.98" width="0.48" height="12.36" transform="translate(73.02 97.57) rotate(-87)"/><rect class="cls-74" x="87.54" y="3.52" width="0.48" height="12.36" transform="translate(73.5 97.16) rotate(-87)"/><rect class="cls-13" x="87.56" y="3.06" width="0.48" height="12.36" transform="translate(73.98 96.75) rotate(-87)"/><rect class="cls-18" x="87.58" y="2.6" width="0.48" height="12.36" transform="translate(74.46 96.33) rotate(-87)"/><rect class="cls-18" x="87.6" y="2.37" width="0.48" height="12.36" transform="matrix(0.05, -1, 1, 0.05, 74.71, 96.13)"/><rect class="cls-21" x="87.62" y="1.91" width="0.48" height="12.36" transform="translate(75.19 95.71) rotate(-87)"/><rect class="cls-24" x="87.64" y="1.45" width="0.48" height="12.36" transform="translate(75.67 95.3) rotate(-87)"/><rect class="cls-27" x="87.67" y="0.99" width="0.48" height="12.36" transform="translate(76.16 94.89) rotate(-87)"/><rect class="cls-28" x="87.69" y="0.52" width="0.48" height="12.36" transform="translate(76.64 94.48) rotate(-87)"/><rect class="cls-30" x="87.72" y="0.06" width="0.48" height="12.36" transform="translate(77.12 94.06) rotate(-87)"/><rect class="cls-31" x="87.74" y="-0.4" width="0.48" height="12.36" transform="translate(77.6 93.65) rotate(-87)"/><rect class="cls-33" x="87.76" y="-0.86" width="0.48" height="12.36" transform="translate(78.09 93.24) rotate(-87)"/><rect class="cls-75" x="87.79" y="-1.32" width="0.48" height="12.36" transform="translate(78.57 92.83) rotate(-87)"/><rect class="cls-37" x="87.81" y="-1.78" width="0.48" height="12.36" transform="translate(79.05 92.41) rotate(-87)"/><rect class="cls-39" x="87.84" y="-2.24" width="0.48" height="12.36" transform="translate(79.54 92) rotate(-87)"/><rect class="cls-41" x="87.86" y="-2.7" width="0.48" height="12.36" transform="translate(80.02 91.59) rotate(-87)"/><rect class="cls-44" x="87.89" y="-3.16" width="0.48" height="12.36" transform="translate(80.5 91.18) rotate(-87)"/><rect class="cls-47" x="87.91" y="-3.62" width="0.48" height="12.36" transform="translate(80.98 90.76) rotate(-87)"/><rect class="cls-49" x="87.93" y="-4.08" width="0.48" height="12.36" transform="translate(81.47 90.35) rotate(-87)"/><rect class="cls-52" x="87.96" y="-4.54" width="0.48" height="12.36" transform="translate(81.95 89.94) rotate(-87)"/><rect class="cls-54" x="87.98" y="-5" width="0.48" height="12.36" transform="translate(82.43 89.53) rotate(-87)"/><rect class="cls-56" x="88.01" y="-5.46" width="0.48" height="12.36" transform="translate(82.92 89.11) rotate(-87)"/><rect class="cls-59" x="88.03" y="-5.92" width="0.48" height="12.36" transform="translate(83.4 88.7) rotate(-87)"/></g><g class="cls-76"><polygon class="cls-77" points="96.94 20.52 90.03 32.99 90.43 33.21 97.34 20.74 96.94 20.52"/><rect class="cls-78" x="86.16" y="26.1" width="14.26" height="0.46" transform="translate(25.03 95.47) rotate(-61)"/><rect class="cls-79" x="85.75" y="25.88" width="14.26" height="0.46" transform="translate(25.02 95) rotate(-61)"/><polygon class="cls-80" points="95.74 19.85 88.83 32.32 89.23 32.55 96.14 20.07 95.74 19.85"/><rect class="cls-81" x="84.95" y="25.44" width="14.26" height="0.46" transform="translate(24.99 94.07) rotate(-61)"/><rect class="cls-82" x="84.55" y="25.22" width="14.26" height="0.46" transform="translate(24.98 93.61) rotate(-61)"/><rect class="cls-83" x="84.15" y="24.99" width="14.26" height="0.46" transform="translate(24.97 93.14) rotate(-61)"/><rect class="cls-84" x="83.75" y="24.77" width="14.26" height="0.46" transform="translate(24.96 92.68) rotate(-61)"/><rect class="cls-85" x="83.35" y="24.55" width="14.26" height="0.46" transform="translate(24.95 92.21) rotate(-61)"/><rect class="cls-86" x="82.95" y="24.33" width="14.26" height="0.46" transform="translate(24.93 91.75) rotate(-61)"/><rect class="cls-87" x="82.55" y="24.11" width="14.26" height="0.46" transform="matrix(0.48, -0.87, 0.87, 0.48, 24.92, 91.28)"/><rect class="cls-88" x="82.15" y="23.88" width="14.26" height="0.46" transform="translate(24.91 90.82) rotate(-61)"/><rect class="cls-89" x="81.75" y="23.66" width="14.26" height="0.46" transform="translate(24.9 90.36) rotate(-61)"/><rect class="cls-90" x="81.35" y="23.44" width="14.26" height="0.46" transform="translate(24.88 89.89) rotate(-61)"/><rect class="cls-91" x="80.95" y="23.22" width="14.26" height="0.46" transform="translate(24.87 89.43) rotate(-61)"/><polygon class="cls-92" points="90.93 17.19 84.02 29.66 84.42 29.88 91.34 17.41 90.93 17.19"/><rect class="cls-93" x="80.15" y="22.77" width="14.26" height="0.46" transform="translate(24.85 88.5) rotate(-61)"/><rect class="cls-94" x="79.75" y="22.55" width="14.26" height="0.46" transform="translate(24.84 88.03) rotate(-61)"/><rect class="cls-95" x="79.34" y="22.33" width="14.26" height="0.46" transform="translate(24.82 87.57) rotate(-61)"/><rect class="cls-96" x="78.94" y="22.11" width="14.26" height="0.46" transform="matrix(0.48, -0.87, 0.87, 0.48, 24.81, 87.1)"/><rect class="cls-97" x="78.54" y="21.88" width="14.26" height="0.46" transform="translate(24.8 86.64) rotate(-61)"/></g><g class="cls-98"><rect class="cls-99" x="94.11" y="9.23" width="0.44" height="16.25"/><rect class="cls-100" x="94.57" y="9.23" width="0.44" height="16.25"/><rect class="cls-82" x="95.02" y="9.23" width="0.44" height="16.25"/><rect class="cls-101" x="95.48" y="9.23" width="0.44" height="16.25"/><rect class="cls-83" x="95.93" y="9.23" width="0.44" height="16.25"/><rect class="cls-102" x="96.39" y="9.23" width="0.44" height="16.25"/><rect class="cls-103" x="96.84" y="9.23" width="0.44" height="16.25"/><rect class="cls-84" x="97.3" y="9.23" width="0.44" height="16.25"/><rect class="cls-104" x="97.75" y="9.23" width="0.44" height="16.25"/><rect class="cls-105" x="98.21" y="9.23" width="0.44" height="16.25"/><rect class="cls-85" x="98.66" y="9.23" width="0.44" height="16.25"/><rect class="cls-106" x="99.11" y="9.23" width="0.44" height="16.25"/><rect class="cls-107" x="99.57" y="9.23" width="0.44" height="16.25"/><rect class="cls-108" x="100.02" y="9.23" width="0.44" height="16.25"/><rect class="cls-109" x="100.48" y="9.23" width="0.44" height="16.25"/><rect class="cls-110" x="100.93" y="9.23" width="0.44" height="16.25"/><rect class="cls-111" x="101.38" y="9.23" width="0.44" height="16.25"/><rect class="cls-112" x="101.84" y="9.23" width="0.44" height="16.25"/><rect class="cls-113" x="102.29" y="9.23" width="0.44" height="16.25"/><rect class="cls-88" x="102.75" y="9.23" width="0.44" height="16.25"/><rect class="cls-114" x="103.2" y="9.23" width="0.44" height="16.25"/><rect class="cls-115" x="103.66" y="9.23" width="0.44" height="16.25"/><rect class="cls-116" x="104.11" y="9.23" width="0.44" height="16.25"/><rect class="cls-117" x="104.57" y="9.23" width="0.44" height="16.25"/><rect class="cls-90" x="105.02" y="9.23" width="0.44" height="16.25"/><rect class="cls-118" x="105.48" y="9.23" width="0.44" height="16.25"/><rect class="cls-119" x="105.93" y="9.23" width="0.44" height="16.25"/><rect class="cls-91" x="106.38" y="9.23" width="0.44" height="16.25"/><rect class="cls-120" x="106.84" y="9.23" width="0.44" height="16.25"/><rect class="cls-121" x="107.3" y="9.23" width="0.44" height="16.25"/><rect class="cls-122" x="107.75" y="9.23" width="0.44" height="16.25"/><rect class="cls-123" x="108.2" y="9.23" width="0.44" height="16.25"/><rect class="cls-124" x="108.66" y="9.23" width="0.44" height="16.25"/><rect class="cls-93" x="109.11" y="9.23" width="0.44" height="16.25"/><rect class="cls-125" x="109.57" y="9.23" width="0.44" height="16.25"/><rect class="cls-126" x="110.02" y="9.23" width="0.44" height="16.25"/><rect class="cls-94" x="110.47" y="9.23" width="0.44" height="16.25"/><rect class="cls-127" x="110.93" y="9.23" width="0.44" height="16.25"/><rect class="cls-128" x="111.38" y="9.23" width="0.44" height="16.25"/><rect class="cls-95" x="111.84" y="9.23" width="0.44" height="16.25"/><rect class="cls-129" x="112.29" y="9.23" width="0.44" height="16.25"/><rect class="cls-130" x="112.75" y="9.23" width="0.44" height="16.25"/><rect class="cls-96" x="113.2" y="9.23" width="0.44" height="16.25"/><rect class="cls-131" x="113.66" y="9.23" width="0.44" height="16.25"/><rect class="cls-132" x="114.11" y="9.23" width="0.44" height="16.25"/><rect class="cls-133" x="114.57" y="9.23" width="0.44" height="16.25"/><rect class="cls-134" x="115.02" y="9.23" width="0.44" height="16.25"/><rect class="cls-135" x="115.48" y="9.23" width="0.44" height="16.25"/><rect class="cls-136" x="115.93" y="9.23" width="0.44" height="16.25"/><rect class="cls-137" x="116.38" y="9.23" width="0.44" height="16.25"/><rect class="cls-138" x="116.84" y="9.23" width="0.44" height="16.25"/><rect class="cls-139" x="117.29" y="9.23" width="0.44" height="16.25"/><rect class="cls-59" x="117.75" y="9.23" width="0.44" height="16.25"/><rect class="cls-59" x="118.2" y="9.23" width="0.44" height="16.25"/><rect class="cls-59" x="118.42" y="9.23" width="0.11" height="16.25"/></g><g class="cls-2"><path class="cls-59" d="M90.26,10.45c0,1,.15,1,.6,1.85a3.35,3.35,0,0,0,1.78,1.28c2.35.71,2.75,2.22,4.11,2.79a4.49,4.49,0,0,0,4.6-.83c1.41-1.21,3.47-1.7,4.91-.76a3,3,0,0,1,.86,4.22,3.23,3.23,0,0,1-4.38.82,7.43,7.43,0,0,1-1.43-1.18A9.74,9.74,0,0,0,99,17a3.24,3.24,0,0,0-2.69.4c-.8.67-3.86,2.08-4.5,2.63a2.89,2.89,0,0,0-.8,1.81,5.21,5.21,0,0,0,.3,1.77A2,2,0,0,1,90,26a1.82,1.82,0,0,1-2.33-1.22,2,2,0,0,1,1.29-2.39h0c.46-.18.81-.49,1.89-1.69s.27-1.68-.05-2.82.32-2.78.27-4.63-2.83-2.56-2.83-2.56a2.19,2.19,0,0,1-2.12-2.26,2.12,2.12,0,1,1,4.24,0s0,1,0,2" transform="translate(0 0.31)"/><path class="cls-140" d="M90.26,10.45c0,1,.15,1,.6,1.85a3.35,3.35,0,0,0,1.78,1.28c2.35.71,2.75,2.22,4.11,2.79a4.49,4.49,0,0,0,4.6-.83c1.41-1.21,3.47-1.7,4.91-.76a3,3,0,0,1,.86,4.22,3.23,3.23,0,0,1-4.38.82,7.43,7.43,0,0,1-1.43-1.18A9.74,9.74,0,0,0,99,17a3.24,3.24,0,0,0-2.69.4c-.8.67-3.86,2.08-4.5,2.63a2.89,2.89,0,0,0-.8,1.81,5.21,5.21,0,0,0,.3,1.77A2,2,0,0,1,90,26a1.82,1.82,0,0,1-2.33-1.22,2,2,0,0,1,1.29-2.39h0c.46-.18.81-.49,1.89-1.69s.27-1.68-.05-2.82.32-2.78.27-4.63-2.83-2.56-2.83-2.56a2.19,2.19,0,0,1-2.12-2.26,2.12,2.12,0,1,1,4.24,0S90.28,9.47,90.26,10.45Z" transform="translate(0 0.31)"/></g></g></g></svg>