<svg xmlns="http://www.w3.org/2000/svg" id="sen" viewBox="0 0 78.52 60"><defs><style>.fa1{fill:#e33027;}.fa2{fill:#f6ae22;}.fa3{fill:#1d1d1b;}.fa4{fill:#9a9a99;}</style></defs><g id="Capa_2" data-name="Capa 2"><g id="Capa_1-2" data-name="Capa 1"><path class="fa1" d="M35.15,0h.63a2.33,2.33,0,0,0,.41.57,7.55,7.55,0,0,1-.81.88h-.76c-.33.59-1,.32-1.31.89a.78.78,0,0,0-.41.24c-.28.07-.31.23-.51.34l-.31.1-.16.2c-.14,0-.41,0-.46.2h-.13a2.88,2.88,0,0,1-.43-.56c-.23.26-.49.48-.71.78l-.08-.07c-.2.19-.07.38-.26.58a3.5,3.5,0,0,1-.65.21,1.92,1.92,0,0,1-.36.4H28.3c-.13.21-.25.15-.25.35s.22.27.22.49-.07.32-.45.32c-.1.1-.17.25-.29.39a.93.93,0,0,0-.88.37.89.89,0,0,1-.43,0l-.07,0c-.08.11,0,.4-.11.55h-.83c-.18.2-.1.23-.28.23l-.18-.09h-.12l0,.26c-.17,0-.55-.05-.6.18l0,.29-.1.12v.86c-.12,0-.21.13-.31.13s-.12-.19-.36-.19c-.4,0-.47.62-.54.83-.06.06-.28.2-.28.38l.07.14v.32h-.11c-.1.14-.09.26-.25.26-.36,0-.07-.41-.53-.41-.21,0-.42.27-.63.4v.7l-.18.16v.58c0,.09-.11.17-.11.43l-.15.15h-.62l-.43.43v.64l-.27.08-.4-.07a.59.59,0,0,0-.49.43c0,.13,0,.19.21.21v.32c-.38.12-.15.68-.6.68l-.32-.11c-.18,0-.16.28-.22.38-.29.42-.77.79-.8,1.34-.54.36-.36,1-.93,1.36v.67c-.5.45-.62,1.29-1.12,1.85v.83a1,1,0,0,0-.39.51l0,.36a.93.93,0,0,0-.4.71c-.24.32-.36.76-.59,1.06,0,.09,0,.3-.12.41V27l.11,0V28c-.17.18-.13.26-.26.49H8.76c-.1-.16-.09-.12-.21-.2s0-.66-.26-.69V26l-.19-.15v-.69l.18-.19-.18-.27v-.53l-.21-.3c-.06-.46-.11-1.06-.41-1.29v-.72a1.74,1.74,0,0,0-.32-.59v-.62c-.43-.11,0-.72-.4-.86v-.82l-.21-.19v-.65c.06,0,.46-.38.46-.53l-.07-.28L7,17l-.07-.34c0-.09.07-.22.08-.35a.61.61,0,0,0,.46-.38s-.08-.63-.46-.63c0-.17-.08-.33-.08-.43,0-.27,0-.19.35-.42A1.88,1.88,0,0,1,7.42,14h.13c.25.3.55.56.81.87l-.08.09a2.79,2.79,0,0,0,.39.44c-.06.33.21.48.4.71l0,.36c.5.21.55.85.73,1.3l.28.32L10,18.1c.27.31.05.48.38.82a1,1,0,0,0,.36.84c.2-.47.72-.86.8-1.47a4.6,4.6,0,0,1,.39-.38l-.07-.06c.8-1.26,1.5-2.31,2.34-3.59l.06-.07c.19,0,.38-.2.32-.4.18-.17.37-.35.53-.53l0-.22a10.61,10.61,0,0,1,1-1c-.06-.53.7-.49.75-1a6.46,6.46,0,0,1,.94-.88,8.37,8.37,0,0,1,1.53-1.62c.11-.08.3-.07.43-.21.31-.34.62-.69,1-1l.21,0c.28-.32.61-.66.94-1a2.9,2.9,0,0,0,1.49-1,1.53,1.53,0,0,0,1-.62,2.77,2.77,0,0,0,.69-.34,2,2,0,0,0,1.13-.59c.22,0,.52-.37.73-.42l.35,0c.16-.07.25-.24.38-.38.34.06.51-.24.73-.34.34.11.6-.2.86-.41.35,0,.48-.16.83-.2a1.38,1.38,0,0,1,.37-.35c.11-.09.33,0,.5-.06.18-.2.44-.1.51-.36H32c.14,0,.16-.14.25-.19h.62l.17.07.56-.47.39,0c.28-.29.87-.25,1.13-.62"/><path class="fa1" d="M6.06,12.21l.15.18,0-.07c.16.08.41.48.57.65l-.22.16c-.32,0-.55-.52-.9-.52a2.86,2.86,0,0,1,0-.4Z"/><path class="fa2" d="M19,33.68l0,.19.05,0a1,1,0,0,0,.47-.3h1.07c.08.17.29.15.48.16v.11c.19.12.32.07.43.28l.19,0v.11a2.67,2.67,0,0,1,.87.63v2c-.2.08-.17.41-.23.58l-.17.27v.48c-.09.13-.22.22-.22.37s.12.28.24.28l.58-.62a.34.34,0,0,0,.32-.33c1-1.19,2.53-2.55,3.42-3.74h.18l.07-.21c.19-.14,2.27-2.32,3.13-2.32.09,0,.26.07.4.09.07.28.35.05.48.19s.49.67.81.69c.06.37.49.68.8.94v.79l-.22.26v.57l-.18.18v.56l-.21.25v.49c-.3.25-.1.71-.41.93v.53l-.18.11v.63c-.39.31-.2.82-.37,1.23-.11.23-.24.12-.24.4l.07.18-.22.23v.64l-.18.18v.49l-.22.25v.72l-.18.25a7.78,7.78,0,0,1-.07.78l.07.3-.21.19a11.44,11.44,0,0,1-.59,1.61l.07.17-.22.27v.48a.56.56,0,0,0-.18.33v.71a1.39,1.39,0,0,1-.31.48c-.19.05-.49.22-.49.35a.18.18,0,0,0,.18.19v.53c0,.24-.54.58-.54.87V51.9l-.33.53c0,.16.15.21.15.39s0,.18-.22.34v1.16l-.19.15v1.08l-.21.11v.63c-.28.33,0,.7-.4.79v.09l.08,0c-.23.15-.32.47-.57.47s-.12-.14-.33-.22l-.29-.06A4.23,4.23,0,0,1,25,56.26l-.21-.15V53l.22-.18V50.24l.18-.18V49l.22-.31v-.6l.18-.15v-.66l.22-.15v-.79l.14-.16v-.72l.19-.25v-.5l.21-.3v-.52l.19-.19V43.1l.21-.22v-.74l.19-.29v-.53l.21-.23v-.52l.18-.22-.07-.18c0-.18.22-.25.22-.37v-.61l.19-.22v-.5l-.17-.11c-.28,0-1.34,1.53-1.57,1.78a.5.5,0,0,0-.46.47,4.83,4.83,0,0,0-1.2,1.47c-.26-.07-.26.26-.41.4a5.63,5.63,0,0,0-.8.82l-.23.06c-.14.41-.58.71-.86,1.09-.74.58-1.57,1.57-2.35,2.18h-1l-.18-.23h-.68l-.3-.11-.43.11-1-.59-.09.07-.2-.15V45h.11c.1-.32-.1-.8.32-.93v-.52l.17-.3a4.92,4.92,0,0,0,.14-.55l0-.37.16-.19a1.67,1.67,0,0,0,0-.4,2.42,2.42,0,0,0,.47-1.12.9.9,0,0,0,.33-.82l.39-.54-.07,0V39H18l0-.21a.91.91,0,0,0,.26-.66c.19-.23.21-.19.21-.45s-.07-.28-.24-.28-.46.18-.5.36a1.34,1.34,0,0,0-.64.41c-.4-.1-.64.2-.89.42-1.1,0-1.15,0-1.24,0-.24,0-.73-.13-.74-.26h-.62c0-.29-.46-.17-.6-.2a1.25,1.25,0,0,0-.35-.29V37.7c.61-.57,1.64-.64,2.14-1.36l-.2-.22c-.14,0,.24-.09.14.09Z"/><path class="fa3" d="M1.93,18.35h.64c.26.21,1.94,1,1.94,1.89l-.12.22V21l-.21.18.06.06A4.81,4.81,0,0,0,4,22c-.3.12-.35.45-.32.76-.47-.05,0,.64-.39.7v.86l-.22.18V27c0,.09.1.16.22.21v1l.16.19c0,.11,0,.26,0,.4A4,4,0,0,1,4.25,30l-.07.08c.07.11.21.26.33.43l.26.16,0,.25c.82.78,1.43,1.66,2.49,1.93.21.45.83.19,1.09.63H9.53l.31.19h.75l0-.15h.28l.07.15a1.83,1.83,0,0,1,.54-.19h1c.18-.23.41-.2.58-.23.52-.35,1.14-.36,1.57-.8.1,0,.37,0,.36-.19l.29,0a.5.5,0,0,1,.51-.37c.25-.28.54-.58.81-.83.08,0,.25-.08.24-.22A14.1,14.1,0,0,0,18,29.59c0-.19.07-.4.22-.41-.07-.25.23-.55.4-.6,0-.17.12-.36.13-.58.45-.06,0-.65.39-.79v-.55l.22-.26v-.79l.18-.15v-2.4l-.18-.19v-.55l-.21-.21c.12-.38-.23-.7-.4-1s0-.64-.33-.69c0-.39-.19-.5-.19-.68V19c.12-.09.19-.2.28-.27s.47.06.45-.19h.63l.27.17.35,0c.31.36.6.53.88.87.06.15.22.42.37.47A2.89,2.89,0,0,0,22,21.41v.52c.36.23.13.64.4,1v.6l.22.29v3.6l-.22.18v.63a20.18,20.18,0,0,0-.92,2.26c-.43.45-.54,1.25-1,1.62,0,.22-.28.31-.19.6a.36.36,0,0,0-.42.39c-.19,0-.47.15-.39.42-.12,0-.19.12-.33.13a4.08,4.08,0,0,1-1.59,1.14l-.16.25-.24,0a1.45,1.45,0,0,1-.39.39c-.29,0-.37.23-.56.42h-.1l0-.07c-.25.17-.46.22-.65.48h-.83l-.19.22h-.69l-.18.19H10.14c-.08-.33-.38-.16-.57-.2-.12-.22-.32-.22-.55-.22-.1-.3-.39-.12-.57-.19s-.11-.2-.33-.2l-.18.07a1.52,1.52,0,0,0-.44-.2c-.29-.41-1-.43-1.28-.8l-.21,0c-.07-.27-.48-.14-.61-.19l-.31-.35-.27-.06c-1-1-2.49-2-2.91-3.19-.53-.33-.49-1.1-.93-1.49a3.19,3.19,0,0,0-.39-.87l0-.36-.16-.2c0-.14.07-.54-.22-.61v-.79L0,26.56l.07-.07v-3.6l-.07,0,.18-.26v-.87l.22-.15v-.67c.24-.06.16-.39.19-.51s.19-.26.22-.49A.87.87,0,0,0,1,19.44c.15-.19.26-.4.4-.6s.57-.19.54-.49"/><path class="fa3" d="M38.35,34.66a3.4,3.4,0,0,0-1.58-.43A1.67,1.67,0,0,0,35,36c0,1,.55,1.22,1.37,1.46.28.09.8.22.8.6s-.33.52-.64.52A1.75,1.75,0,0,1,35.39,38l-.57,1.09a3.09,3.09,0,0,0,1.78.59A2.23,2.23,0,0,0,38,39.2a1.79,1.79,0,0,0,.52-1.39c0-.84-.54-1.21-1.25-1.42l-.33-.1c-.23-.08-.59-.19-.59-.5s.33-.43.57-.43a1.39,1.39,0,0,1,.87.34Z"/><path class="fa4" d="M41.11,35.91a1.89,1.89,0,1,0,2.07,1.88,1.9,1.9,0,0,0-2.07-1.88m0,1.09a.75.75,0,0,1,.78.79.79.79,0,1,1-1.57,0,.76.76,0,0,1,.79-.79m5.23-.88a1.59,1.59,0,0,0-.8-.21,1.86,1.86,0,0,0-1.92,1.92,1.84,1.84,0,0,0,1.87,1.84,1.93,1.93,0,0,0,.85-.2V38.41a.92.92,0,0,1-.61.24.82.82,0,0,1-.85-.86.84.84,0,0,1,.83-.86,1.09,1.09,0,0,1,.63.24ZM48.46,36H47.24v3.52h1.22ZM47.85,34a.7.7,0,0,0,0,1.4.7.7,0,0,0,0-1.4m2.53,3.31a.69.69,0,0,1,.73-.56.7.7,0,0,1,.69.56Zm2.55.59a1.9,1.9,0,1,0-3.79-.08,1.81,1.81,0,0,0,2,1.88,1.67,1.67,0,0,0,1.75-1.21H51.71a.61.61,0,0,1-.58.32.69.69,0,0,1-.77-.78h2.57Zm3.28,1.68h1.22v-5.7H56.21v2.52a1.39,1.39,0,0,0-1.07-.46,1.78,1.78,0,0,0-1.72,1.88,1.8,1.8,0,0,0,1.73,1.88,1.19,1.19,0,0,0,1-.51h0ZM55.46,37a.76.76,0,0,1,.79.79.79.79,0,1,1-1.57,0,.75.75,0,0,1,.78-.79m4.66,0a.76.76,0,0,1,.79.79.79.79,0,1,1-1.57,0,.75.75,0,0,1,.78-.79m2-1H60.87v.34a1.39,1.39,0,0,0-1.07-.46,1.78,1.78,0,0,0-1.72,1.88,1.8,1.8,0,0,0,1.74,1.88,1.21,1.21,0,0,0,1-.51h0v.39h1.22Zm3.53,3.52h1.22v-5.7H65.62v2.52a1.37,1.37,0,0,0-1.06-.46,1.89,1.89,0,0,0,0,3.76,1.2,1.2,0,0,0,1-.51h0ZM64.88,37a.75.75,0,0,1,.78.79.74.74,0,0,1-.78.79.75.75,0,0,1-.79-.79.76.76,0,0,1,.79-.79"/><polygon class="fa3" points="37.93 44.97 37.93 43.83 35.05 43.83 35.05 49 37.93 49 37.93 47.86 36.37 47.86 36.37 46.97 37.85 46.97 37.85 45.83 36.37 45.83 36.37 44.97 37.93 44.97"/><path class="fa4" d="M41.53,45.59a2.6,2.6,0,0,0-1.13-.23c-.75,0-1.52.39-1.52,1.25a.87.87,0,0,0,.77.93c.38.1.76.12.76.39s-.23.27-.38.27a2,2,0,0,1-1-.36l-.44.88a2.71,2.71,0,0,0,1.39.4c.79,0,1.62-.38,1.62-1.31,0-.65-.43-.93-1-1.05-.17,0-.55-.06-.55-.31s.24-.23.38-.23a1.41,1.41,0,0,1,.66.17Zm2.07-.11H42.38v5.28H43.6V48.67a1.42,1.42,0,0,0,1.07.45,1.76,1.76,0,0,0,1.72-1.87,1.79,1.79,0,0,0-1.73-1.89,1.21,1.21,0,0,0-1,.52h0Zm.75,1a.76.76,0,0,1,.78.8.79.79,0,0,1-1.57,0,.76.76,0,0,1,.79-.8m4.58,0a.76.76,0,0,1,.78.8.79.79,0,0,1-1.57,0,.76.76,0,0,1,.79-.8m2-1H49.67v.34a1.37,1.37,0,0,0-1.06-.46,1.89,1.89,0,0,0,0,3.76,1.21,1.21,0,0,0,1-.51h0V49h1.22Zm2-.71c0-.13.07-.25.23-.25s.67.25,1,.25c.57,0,.83-.59.87-1.08h-.57c-.06.14-.1.24-.27.24s-.75-.23-1.09-.23a.72.72,0,0,0-.6.39,1.15,1.15,0,0,0-.15.61v.07Zm.19.71H51.84V49h1.22V47.18c0-.44.14-.82.63-.82s.55.59.55.93V49h1.22V46.83c0-.87-.36-1.47-1.29-1.47a1.19,1.19,0,0,0-1.1.57h0Zm5.16-.12a1.89,1.89,0,1,0,2.07,1.89,1.9,1.9,0,0,0-2.07-1.89m0,1.09a.76.76,0,0,1,.79.8.74.74,0,0,1-.79.78.73.73,0,0,1-.78-.78.75.75,0,0,1,.78-.8m4-3.15H61V49H62.2Zm2.73,3.15a.76.76,0,0,1,.79.8.79.79,0,0,1-1.57,0,.76.76,0,0,1,.78-.8m2-1H65.68v.34a1.39,1.39,0,0,0-1.07-.46,1.89,1.89,0,0,0,0,3.76,1.18,1.18,0,0,0,1-.51h0V49H66.9Zm6,3.52h1.22V43.3H72.87v2.52a1.39,1.39,0,0,0-1.07-.46,1.89,1.89,0,0,0,0,3.76,1.19,1.19,0,0,0,1-.51h0Zm-.75-2.55a.76.76,0,0,1,.79.8.79.79,0,0,1-1.57,0,.76.76,0,0,1,.78-.8m3.85.28a.7.7,0,0,1,.73-.56.68.68,0,0,1,.68.56Zm2.55.59a1.9,1.9,0,1,0-3.79-.07,1.81,1.81,0,0,0,2,1.87,1.67,1.67,0,0,0,1.75-1.21H77.3a.6.6,0,0,1-.59.32.69.69,0,0,1-.76-.78h2.57Z"/><polygon class="fa3" points="35.05 58.24 36.37 58.24 36.37 55.07 36.38 55.07 38.79 58.24 40.1 58.24 40.1 53.06 38.79 53.06 38.79 56.23 38.77 56.23 36.37 53.06 35.05 53.06 35.05 58.24"/><path class="fa4" d="M42.05,56a.7.7,0,0,1,.73-.55.69.69,0,0,1,.69.55Zm2.55.6a1.9,1.9,0,1,0-3.79-.08,1.81,1.81,0,0,0,2,1.87,1.67,1.67,0,0,0,1.75-1.2H43.38a.6.6,0,0,1-.58.32.7.7,0,0,1-.77-.78H44.6Zm2-.81h.86v-1h-.86v-.58c0-.39.11-.59.43-.59a1.11,1.11,0,0,1,.43.12V52.59a1.08,1.08,0,0,0-.53-.12,1.56,1.56,0,0,0-1.2.56,1.67,1.67,0,0,0-.35,1.24v.45H45v1h.43v2.49h1.22Zm2.62-1H48v3.52h1.22V56.82c0-.61.17-1.07.85-1.07a.94.94,0,0,1,.51.12v-1.2h-.23a1.2,1.2,0,0,0-1.12.62h0Z"/><path class="fa4" d="M52.89,54.6A1.88,1.88,0,1,0,55,56.48a1.91,1.91,0,0,0-2.07-1.88m0,1.08a.76.76,0,0,1,.79.8.75.75,0,0,1-.79.79.74.74,0,0,1-.78-.79.76.76,0,0,1,.78-.8m4-3.14H55.65v5.7h1.22Zm2.75,2.06a1.89,1.89,0,1,0,2.08,1.88,1.91,1.91,0,0,0-2.08-1.88m0,1.08a.76.76,0,0,1,.79.8.79.79,0,1,1-1.57,0,.76.76,0,0,1,.78-.8m6.54-1H64.93v.38h0a1.14,1.14,0,0,0-1-.49,1.8,1.8,0,0,0-1.76,1.91,1.7,1.7,0,0,0,1.69,1.8,1.4,1.4,0,0,0,1.09-.48V58c0,.57-.12,1-.78,1l-.35-.08a.47.47,0,0,1-.23-.27H62.21c.1.93,1.16,1.35,1.95,1.35,1.27,0,2-.61,2-2.11Zm-2,.95a.75.75,0,0,1,.78.79.78.78,0,1,1-1.56,0,.75.75,0,0,1,.78-.79m4.42-2.5-.74-.55-1,1.18.54.4Zm-.34,1.55H67.05v3.53h1.22Z"/><path class="fa4" d="M71,55.68a.76.76,0,0,1,.79.8.79.79,0,1,1-1.57,0,.76.76,0,0,1,.78-.8m2-1H71.76v.34a1.39,1.39,0,0,0-1.07-.46A1.77,1.77,0,0,0,69,56.47a1.79,1.79,0,0,0,1.74,1.88,1.2,1.2,0,0,0,1-.5h0v.39H73Z"/></g></g></svg>